<?xml version="1.0" encoding="utf-8"?>
<!-- Generator: Adobe Illustrator 25.4.1, SVG Export Plug-In . SVG Version: 6.00 Blild 0)  -->
<svg version="1.1" id="圖層_1" xmlns="http://www.w3.org/2000/svg" xmlns:xlink="http://www.w3.org/1999/xlink" x="0px" y="0px"
	 viewBox="0 0 568.552 375" enable-background="new 0 0 568.552 375" xml:space="preserve">
<g>
	<path id="Path_27" fill="#070203" stroke="#000000" stroke-linecap="round" d="M19.051,54.111c-1.755,0.025-3.424-0.76-4.523-2.129
		c-1.262-1.51-2.266-3.217-2.972-5.054c-0.789-1.991-1.437-4.035-1.939-6.117c-0.406-1.76-0.924-3.493-1.551-5.187
		c-0.155-0.287-0.243-0.605-0.258-0.931c0-0.62,0.258-0.953,0.775-1c0.518-0.043,0.99-0.067,1.423-0.067
		c3.927,0.082,7.753,1.257,11.049,3.392c1.656,1.087,3.083,2.487,4.2,4.123c1.113,1.624,1.699,3.551,1.679,5.519
		c0.101,2.065-0.728,4.067-2.261,5.454c-1.556,1.349-3.563,2.063-5.622,2 M9.229,86.964c0.172-0.267,0.343-0.4,0.518-0.4
		c0.221-0.01,0.438-0.055,0.645-0.133c2.675-0.92,5.075-2.498,6.98-4.589c1.946-2.156,3.617-4.546,4.974-7.115
		c1.467-2.761,2.721-5.629,3.751-8.581c1.076-3.059,2.153-6.095,3.232-9.11c1.039-2.927,2.247-5.792,3.618-8.579
		c1.274-2.618,2.953-5.019,4.974-7.115c0.258-0.311,0.631-0.503,1.034-0.531c0.343,0,0.536,0.2,0.581,0.6s0.065,0.688,0.065,0.865
		c0.008,4.106-0.624,8.189-1.874,12.1c-1.249,3.903-2.628,7.783-4.136,11.638c-1.508,3.855-2.886,7.735-4.135,11.638
		c-1.258,3.957-1.89,8.085-1.874,12.237c-0.003,2.025,0.28,4.039,0.84,5.985c0.56,1.951,1.163,3.901,1.809,5.85
		c0.646,1.949,1.25,3.9,1.811,5.852c0.558,1.946,0.841,3.961,0.84,5.985c0.124,3.032-0.944,5.991-2.974,8.246
		c-2.042,2.155-4.917,3.319-7.883,3.193c-1.91,0.108-3.794-0.484-5.3-1.663c-1.293-1.111-1.939-2.863-1.939-5.254
		c0.023-2.334,0.175-4.665,0.453-6.983c0.3-2.703,0.472-5.43,0.516-8.179c0.051-2.628-0.143-5.256-0.581-7.848
		c-0.303-2.23-1.351-4.292-2.972-5.852c-0.439-0.444-0.939-0.823-1.485-1.125c-0.55-0.3-1.051-0.682-1.488-1.131 M14.786,4.634
		c0-0.886,0.388-1.33,1.163-1.331c2.134,0.04,4.257,0.308,6.334,0.8c2.417,0.534,4.761,1.36,6.978,2.46
		c2.137,1.034,4.065,2.454,5.686,4.188c1.524,1.617,2.359,3.763,2.327,5.985c0.061,2.144-0.73,4.225-2.2,5.787
		c-1.432,1.537-3.457,2.385-5.557,2.327c-1.293,0-2.8-0.82-4.523-2.46c-1.817-1.75-3.442-3.689-4.846-5.785
		c-1.457-2.128-2.732-4.375-3.811-6.717C15.477,8.257,14.95,6.471,14.786,4.634 M105.634,10.22c0.26-0.265,0.731-0.775,1.423-1.529
		s1.44-1.552,2.26-2.395s1.573-1.574,2.262-2.194s1.163-0.931,1.418-0.931s1.013,0.6,2.262,1.794s2.6,2.55,4.071,4.058
		s2.777,2.905,3.941,4.188s1.744,2.062,1.744,2.329c0.022,0.302-0.097,0.598-0.323,0.8c-0.203,0.166-0.397,0.343-0.581,0.531
		c-0.863,0.711-2.09,1.731-3.683,3.06s-3.27,2.702-5.031,4.121c-1.641,1.331-3.369,2.553-5.171,3.657
		c-1.126,0.813-2.435,1.338-3.811,1.529c-0.863,0-1.294-0.4-1.293-1.2c0-2.139,0.173-4.274,0.516-6.385
		c0.344-2.11,0.517-4.245,0.518-6.383c0-1.241-0.323-1.929-0.97-2.062c-0.789-0.145-1.589-0.212-2.391-0.2
		c-0.605,0-1.21,0.045-1.809,0.133c-0.604,0.089-1.179,0.317-1.681,0.665c-0.001,0.092-0.023,0.183-0.065,0.265
		c-0.041,0.083-0.062,0.174-0.063,0.267v21.019c0.027,0.688,0.33,1.337,0.84,1.8c0.436,0.518,1.068,0.831,1.744,0.865h11.236
		c0.813,0.021,1.594-0.32,2.132-0.931c0.586-0.656,1.105-1.369,1.551-2.127c0.473-0.8,0.904-1.576,1.293-2.329
		c0.284-0.638,0.758-1.172,1.358-1.529c0.567,0.595,1.046,1.269,1.421,2c0.688,1.153,1.355,2.416,2,3.79s1.227,2.682,1.746,3.925
		c0.371,0.757,0.632,1.563,0.775,2.394c0.017,1.098-0.323,2.171-0.97,3.058c-0.665,0.905-1.499,1.672-2.455,2.261
		c-0.988,0.621-2.052,1.113-3.165,1.463c-1,0.335-2.045,0.515-3.1,0.533H90.645c-0.619-0.031-1.22-0.219-1.748-0.544
		c-0.658-0.362-1.267-0.809-1.809-1.329c-0.554-0.524-1.052-1.103-1.486-1.729c-0.387-0.497-0.612-1.1-0.646-1.729V14.076
		c0-0.351-0.28-0.6-0.84-0.731c-0.615-0.137-1.246-0.181-1.874-0.133c-0.672,0.043-1.34,0.133-2,0.267
		c-0.458,0.087-0.912,0.198-1.358,0.333l-0.516,0.8c-0.704,3.688-1.632,7.331-2.779,10.906c-1.162,3.633-2.609,7.168-4.329,10.573
		c-1.701,3.379-3.69,6.606-5.944,9.644c-2.198,2.968-4.759,5.649-7.625,7.979c-1.539,1.221-3.208,2.269-4.976,3.125
		c-1.729,0.942-3.654,1.466-5.622,1.529c-0.346-0.004-0.691-0.026-1.034-0.065c-0.359,0-0.65-0.291-0.65-0.65
		c0-0.028,0.002-0.056,0.005-0.083c0.023-0.241,0.112-0.471,0.258-0.665c0.15-0.238,0.323-0.461,0.516-0.665
		c2.499-3.013,4.739-5.961,6.72-8.844c1.936-2.806,3.642-5.764,5.1-8.846c1.438-3.058,2.522-6.271,3.232-9.575
		c0.767-3.719,1.136-7.509,1.1-11.306c0-0.265,0.02-0.641,0.065-1.129c0.041-0.51,0.019-1.024-0.065-1.529
		c-0.064-0.46-0.195-0.908-0.388-1.331c-0.161-0.346-0.519-0.557-0.9-0.531h-1.423c-1.075-0.065-2.106,0.44-2.714,1.329
		c-0.664,1.022-1.165,2.142-1.486,3.318c-0.404,1.399-0.728,2.82-0.97,4.256c-0.245,1.461-0.657,2.889-1.228,4.256
		c-0.525,1.281-1.343,2.42-2.39,3.325c-1.213,0.946-2.729,1.418-4.265,1.329c-1.673-0.011-3.309-0.497-4.718-1.4
		c-1.474-0.868-2.345-2.482-2.261-4.19c-0.026-1.577,0.352-3.134,1.1-4.523c0.748-1.353,1.636-2.623,2.65-3.79
		c1.052-1.217,2.174-2.371,3.36-3.458c1.205-1.108,2.281-2.194,3.23-3.258c0.314-0.375,0.595-0.777,0.84-1.2
		c0.388-0.618,0.776-1.238,1.163-1.861c0.357-0.575,0.745-1.13,1.163-1.663c0.388-0.486,0.668-0.731,0.841-0.731
		c0.517-0.088,0.817,0.2,0.9,0.863c0.083,0.663,0.169,1.417,0.258,2.262c0.074,0.801,0.27,1.585,0.581,2.327
		c0.367,0.749,1.174,1.178,2,1.064c7.838,0,15.677-0.133,23.518-0.4c7.841-0.267,15.681-0.4,23.52-0.4L105.634,10.22z
		 M39.987,115.69c2.067-2.305,4.393-5.143,6.978-8.512c2.585-3.369,5.105-6.916,7.56-10.64c2.455-3.725,4.674-7.449,6.655-11.173
		c1.768-3.229,3.239-6.613,4.395-10.108c0.101-0.527,0.144-1.064,0.128-1.6c-0.169-0.642-0.758-1.083-1.421-1.064H41.02l-0.388-0.4
		l0.388-0.4h30.24c0.946,0,1.441-0.886,1.486-2.659c0.037-1.953-0.027-3.906-0.193-5.852c-0.168-1.946-0.232-3.899-0.193-5.852
		c0.041-1.774,0.537-2.661,1.486-2.66c2.744,0,5.485,0.177,8.206,0.531c2.713,0.355,5.405,0.798,8.076,1.331
		c0.208,0.104,0.424,0.193,0.646,0.265c0.239,0.063,0.401,0.286,0.388,0.533c-0.284,0.601-0.679,1.144-1.163,1.6
		c-0.87,1.19-1.283,2.654-1.163,4.123v2.793c-0.026,3.374,0.941,6.681,2.779,9.51c1.884,2.919,4.192,5.541,6.848,7.781
		c2.727,2.315,5.669,4.364,8.787,6.117c3.145,1.776,6.01,3.328,8.594,4.656l2.326,1.2c1.035,0.533,2.09,1.067,3.167,1.6
		c1.019,0.501,2.011,1.057,2.972,1.663c0.691,0.431,1.359,0.898,2,1.4c0.318,0.138,0.522,0.454,0.516,0.8
		c-0.209,0.909-0.708,1.725-1.421,2.327c-0.949,1.019-2.027,2.128-3.232,3.325c-1.205,1.197-2.368,2.35-3.488,3.458
		c-0.871,0.788-1.613,1.708-2.2,2.725c-0.364,0.778-0.604,1.609-0.711,2.462c-0.067,0.842-0.586,1.58-1.356,1.927l-0.9-0.267
		c-0.501-0.512-0.956-1.068-1.358-1.661c-0.388-0.578-0.797-1.178-1.228-1.8c-2.499-3.725-5.126-7.36-7.883-10.906
		c-2.757-3.546-5.384-7.181-7.883-10.906c-0.691-0.975-1.316-1.928-1.874-2.86c-0.585-0.966-1.254-1.877-2-2.725
		c-0.173-0.177-0.366-0.353-0.581-0.533c-0.158-0.152-0.363-0.245-0.581-0.265c-0.345,0-0.561,0.222-0.646,0.665
		c-0.068,0.306-0.111,0.618-0.128,0.931v33.915c0,0.975-0.646,1.773-1.939,2.394c-1.423,0.663-2.919,1.154-4.458,1.463
		c-1.681,0.353-3.318,0.62-4.911,0.8c-1.593,0.18-2.735,0.269-3.425,0.267c-0.635,0.082-1.216-0.367-1.298-1.002
		c-0.014-0.109-0.012-0.219,0.005-0.327V94.675c-0.002-0.278-0.068-0.552-0.193-0.8c-0.132-0.267-0.414-0.426-0.711-0.4
		c-1.252,0.18-2.411,0.764-3.3,1.663c-1.333,1.109-2.863,2.506-4.588,4.19c-1.725,1.684-3.578,3.502-5.557,5.454
		c-1.95,1.923-3.999,3.743-6.139,5.452c-1.989,1.605-4.133,3.009-6.4,4.19c-1.904,1.042-4.03,1.612-6.2,1.662L39.987,115.69z
		 M112.487,59.696c0.6,0.533,1.548,1.376,2.844,2.527c1.296,1.151,2.61,2.37,3.941,3.657c1.333,1.288,2.561,2.53,3.683,3.725
		c0.793,0.777,1.487,1.648,2.067,2.594l-0.388,0.4H93.875c-0.316,0.042-0.607-0.181-0.648-0.498
		c-0.007-0.056-0.006-0.112,0.002-0.167c0-0.533,0.431-0.8,1.293-0.8c0.86,0,1.829,0.047,2.907,0.133s2.152,0.133,3.232,0.133
		c0.873,0.071,1.736-0.218,2.39-0.8c0.712-0.88,1.319-1.84,1.809-2.86c0.6-1.196,1.225-2.371,1.874-3.525
		c0.603-1.09,1.318-2.115,2.132-3.058c0.705-0.842,1.653-1.445,2.714-1.729L112.487,59.696z"/>
	<path id="Path_29" fill="#070203" stroke="#000000" stroke-linecap="round" d="M175.326,23.317c0,4.789,0.108,9.511,0.323,14.165
		s0.323,9.376,0.323,14.165c0,5.765-0.194,11.462-0.581,17.091c-0.373,5.524-1.15,11.014-2.326,16.425
		c-1.168,5.335-2.901,10.531-5.169,15.5c-2.382,5.164-5.401,10.01-8.985,14.425c-0.431,0.533-1.078,1.287-1.939,2.261
		s-1.786,1.951-2.774,2.931c-0.913,0.905-1.885,1.75-2.909,2.527c-0.65,0.581-1.461,0.952-2.326,1.064c-0.175,0-0.3-0.133-0.388-0.4
		c-0.077-0.214-0.121-0.438-0.13-0.665c-0.005-2.235,0.344-4.457,1.034-6.583c0.776-2.703,1.681-5.563,2.714-8.579
		c1.033-3.016,2.046-5.986,3.037-8.911c0.869-2.469,1.538-5.004,2-7.581c1.204-7.08,1.916-14.235,2.131-21.413
		c0.215-7.183,0.323-14.366,0.325-21.548c0-5.851-0.065-11.658-0.195-17.423c-0.13-5.765-0.194-11.572-0.193-17.423
		c0-0.8,0.43-1.2,1.291-1.2c1.57,0.03,3.106,0.465,4.459,1.263c1.509,0.848,3.061,1.757,4.658,2.728
		c1.597,0.971,3.212,1.88,4.846,2.727c1.553,0.822,3.282,1.255,5.039,1.263h21.97c0.688,0,1.14-0.467,1.356-1.4
		c0.232-1.137,0.318-2.299,0.258-3.458c-0.043-1.374-0.151-2.859-0.323-4.456c-0.172-1.597-0.28-3.081-0.323-4.454
		c-0.061-1.159,0.027-2.321,0.26-3.458c0.213-0.933,0.665-1.4,1.356-1.4c0.517,0,1.744,0.089,3.683,0.267
		c1.939,0.178,3.963,0.4,6.074,0.665c2.111,0.267,4.006,0.533,5.686,0.8c0.898,0.093,1.786,0.272,2.65,0.533
		c0.172,0.265-0.11,0.821-0.841,1.663c-0.547,0.57-1.005,1.221-1.356,1.929c-0.157,0.631-0.243,1.277-0.258,1.927
		c-0.088,1.109-0.174,2.329-0.258,3.658s-0.171,2.593-0.26,3.79c-0.087,1.2-0.129,1.976-0.128,2.327c0,0.711,0.3,1.064,0.9,1.064
		h23.262c1.329-0.018,2.573-0.658,3.36-1.729c0.981-1.201,1.846-2.492,2.584-3.856c0.776-1.417,1.509-2.769,2.2-4.056
		c0.407-0.986,1.136-1.806,2.067-2.327c0.924,0.656,1.809,1.367,2.65,2.127c1.333,1.153,2.733,2.438,4.2,3.856
		c1.467,1.418,2.845,2.77,4.135,4.056c1.293,1.288,2.154,2.197,2.585,2.727c-0.245,0.702-0.941,1.143-1.681,1.064h-88.78l-0.9,0.4
		L175.326,23.317z M169.899,124.398c1.206-0.445,2.455-0.888,3.748-1.329c1.293-0.441,2.542-0.885,3.748-1.331
		c0.6-0.267,1.763-0.754,3.488-1.463c1.725-0.709,3.685-1.551,5.88-2.527c2.2-0.976,4.483-2.04,6.848-3.192
		c2.365-1.152,4.563-2.26,6.592-3.325c1.713-0.88,3.375-1.857,4.976-2.927c1.291-0.885,1.937-1.549,1.937-1.994
		c0.002-0.245-0.02-0.49-0.065-0.731c-0.05-0.247-0.115-0.491-0.193-0.731c-0.517-0.62-1.378-1.751-2.584-3.392
		c-1.206-1.641-2.455-3.37-3.748-5.187c-1.293-1.817-2.413-3.546-3.36-5.187c-0.708-1.018-1.193-2.174-1.423-3.392
		c0-0.533,0.215-0.8,0.646-0.8c1.674,0.051,3.266,0.732,4.459,1.907c1.421,1.273,2.885,2.654,4.393,4.145
		c1.488,1.475,3.064,2.858,4.718,4.143c1.537,1.238,3.453,1.912,5.427,1.909c0.412,0.005,0.816-0.11,1.163-0.332
		c0.343-0.22,0.646-0.416,0.9-0.595c0.937-0.872,1.822-1.798,2.65-2.774c1.421-1.583,2.863-3.277,4.328-5.082
		c1.465-1.805,2.8-3.501,4.006-5.086c0.744-0.825,1.354-1.761,1.809-2.775c0.077-0.504-0.27-0.975-0.774-1.051
		c-0.086-0.013-0.173-0.014-0.259-0.003h-28.94c-0.75-0.061-1.489-0.216-2.2-0.461c-1.034-0.308-12.289-0.285-12.719-0.461
		c0.343-0.087,11.339-0.4,11.942-0.4h30.119c0.794-0.141,1.546-0.459,2.2-0.931c1.11-0.674,2.168-1.43,3.165-2.261
		c1.008-0.821,1.958-1.709,2.844-2.66c0.818-0.885,1.227-1.549,1.228-1.994c0.091-0.569-0.297-1.105-0.867-1.195
		c-0.098-0.016-0.198-0.017-0.296-0.005c-1.707,0-3.413,0.111-5.106,0.333c-1.691,0.222-3.395,0.334-5.1,0.333
		c-0.6,0-1.03-0.667-1.291-2c-0.283-1.517-0.478-3.049-0.583-4.589c-0.128-1.729-0.192-3.392-0.193-4.988v-3.192
		c0-4.699,0.022-9.354,0.065-13.965c0.043-4.611,0.064-9.266,0.063-13.965c0-0.886,0.517-1.33,1.551-1.331
		c0.6,0,1.763,0.022,3.49,0.067c1.727,0.045,3.514,0.156,5.362,0.333c1.68,0.147,3.345,0.437,4.976,0.865
		c1.467,0.4,2.2,0.91,2.2,1.529c-0.028,0.436-0.186,0.854-0.453,1.2c-0.3,0.446-0.538,0.8-0.71,1.064
		c0,0.356-0.023,0.978-0.065,1.862s-0.065,1.8-0.065,2.727v2.592c-0.026,0.537,0.018,1.074,0.13,1.6
		c0.074,0.33,0.205,0.645,0.386,0.931c0.176,0.278,0.266,0.601,0.26,0.93c-0.017,0.326-0.105,0.644-0.26,0.931
		c-0.15,0.301-0.279,0.612-0.386,0.931c-0.284,1.493-0.457,3.005-0.518,4.523c-0.173,2.394-0.302,4.987-0.386,7.779
		c-0.084,2.792-0.127,5.43-0.13,7.914c0,2.484,0.043,4.08,0.13,4.788c0.39,1.014,1.009,1.924,1.809,2.66
		c1.118,1.243,2.388,2.528,3.811,3.856c1.423,1.328,2.823,2.592,4.2,3.791c1.377,1.196,2.325,2.016,2.844,2.46l0.258,0.665
		l-0.386,0.531c-1.112,0.573-2.172,1.242-3.167,2c-0.926,0.796-1.81,1.64-2.649,2.527l-8.271,8.512
		c-1.642,1.688-3.414,3.244-5.3,4.654c-0.425,0.261-0.815,0.574-1.163,0.931c-0.345,0.356-0.531,0.836-0.516,1.331
		c0.002,0.626,0.427,1.172,1.033,1.329c1.344,0.379,2.745,0.515,4.136,0.4c1.42-0.087,2.845-0.087,4.265,0
		c3.961,0.18,7.967,0.38,12.017,0.6c4.02,0.217,8.006,0.863,11.889,1.927c0.26,0.09,0.56,0.2,0.9,0.333
		c0.319,0.098,0.531,0.398,0.518,0.731c-0.09,0.523-0.365,0.995-0.776,1.331c-1.508,1.615-2.911,3.325-4.2,5.119
		c-1.257,1.811-2.319,3.75-3.167,5.785c-0.328,0.667-0.608,1.356-0.84,2.062c-0.233,0.705-0.514,1.394-0.84,2.062
		c-0.345,0.618-0.733,0.93-1.163,0.93c-2.265-0.035-4.52-0.326-6.72-0.865c-2.558-0.594-5.082-1.327-7.561-2.194
		c-2.541-0.888-4.996-1.864-7.365-2.927c-2.369-1.063-4.459-2.038-6.269-2.925c-0.258-0.09-0.885-0.378-1.874-0.865
		s-2-1-3.037-1.529l-2.842-1.463c-0.455-0.261-0.931-0.484-1.423-0.666c-3.93-0.005-7.836,0.624-11.566,1.862
		c-3.748,1.241-7.474,2.593-11.178,4.056c-3.704,1.463-7.453,2.794-11.248,3.995c-3.805,1.2-7.772,1.807-11.761,1.8h-1.1
		c-0.38-0.018-0.754-0.109-1.1-0.267L169.899,124.398z M179.204,43.267h19.962l0.388,0.4l-0.388,0.4h-20.738l-0.258-0.265
		l0.13-0.133L179.204,43.267z M179.074,80.508c0.343,0,1.054-0.022,2.132-0.067c1.078-0.045,2.198-0.067,3.36-0.067
		c1.163,0,18.009,0.023,18.959,0.067c0.567-0.009,1.132,0.058,1.681,0.2l-1.423,0.665h-24.709l-0.388-0.4L179.074,80.508z
		 M191.609,28.908c0-0.886,0.388-1.33,1.163-1.331c0.518,0,1.636,0.023,3.36,0.067s3.49,0.178,5.3,0.4
		c1.631,0.19,3.25,0.479,4.846,0.865c1.421,0.355,2.131,0.842,2.132,1.463c-0.001,0.538-0.237,1.049-0.646,1.4
		c-0.386,0.309-0.622,0.77-0.646,1.264v27.531c0,0.886,0.388,1.329,1.163,1.329c0.908-0.021,1.814-0.088,2.715-0.2
		c1.201-0.132,2.409-0.199,3.618-0.2c1.2,0,7.61,0.067,8.689,0.2c0.822,0.007,1.601,0.372,2.132,1c0,0.533-0.539,0.867-1.616,1
		c-1.078,0.133-7.548,0.178-8.882,0.133s-2.63-0.11-3.878-0.2c-0.797-0.126-1.612-0.08-2.39,0.133
		c-1.117,0.371-2.03,1.19-2.519,2.261c-0.388,0.978-0.819,1.975-1.293,2.992c-0.493,1.044-1.252,1.941-2.2,2.6
		c-0.991,0.709-2.736,1.064-5.234,1.063h-1.228c-0.561,0-1.121-0.02-1.681-0.067s-1.1-0.11-1.614-0.2s-0.82-0.222-0.9-0.4
		c-0.075-0.15-0.141-0.306-0.195-0.465c-0.054-0.159-0.119-0.315-0.193-0.466L191.609,28.908z M204.824,43.271h21l0.388,0.4
		l-0.388,0.4h-21l-0.386-0.4L204.824,43.271z M237.261,43.671l0.388-0.4c1.981-0.353,8.882-1.151,10.175-2.394
		c1.21-1.143,2.293-2.414,3.23-3.79c0.861-1.285,1.595-2.437,2.2-3.458c0.359-0.848,1.151-1.434,2.067-1.529
		c0.872,0.405,1.661,0.969,2.327,1.662c1.291,1.109,2.67,2.35,4.135,3.723s2.779,2.659,3.941,3.858
		c0.684,0.593,1.273,1.288,1.744,2.061c0.015,0.247-0.147,0.47-0.386,0.533c-0.207,0.078-0.425,0.122-0.646,0.132H237.65
		L237.261,43.671z"/>
	<path id="Path_31" fill="#070203" stroke="#000000" stroke-linecap="round" d="M296.378,208.276l-5.041-12.9v-0.665
		c0.517,0,1.55-0.022,3.1-0.067c1.55-0.045,3.187-0.089,4.911-0.133c1.723-0.043,3.295-0.132,4.716-0.267
		c0.86-0.012,1.712-0.169,2.52-0.465c0.994-1.029,1.764-2.252,2.262-3.592c0.905-1.949,1.852-4.277,2.842-6.983
		c0.99-2.706,2.046-5.632,3.167-8.777c1.119-3.147,2.197-6.139,3.232-8.977c1.035-2.838,2.026-5.321,2.972-7.448
		c0.592-1.566,1.468-3.009,2.584-4.256c1.084,0.205,2.145,0.518,3.167,0.935c1.764,0.623,3.616,1.334,5.557,2.134
		s3.707,1.579,5.3,2.337c1.594,0.756,2.434,1.267,2.52,1.533c-0.188,0.288-0.429,0.538-0.711,0.735c-0.386,0.312-0.82,0.646-1.291,1
		c-0.471,0.354-0.95,0.688-1.423,1c-0.473,0.312-0.84,0.556-1.1,0.733c-3.578,3.071-6.768,6.567-9.5,10.41
		c-2.713,3.827-5.621,7.518-8.722,11.074c-0.26,0.267-0.734,0.779-1.423,1.536c-0.689,0.757-1.399,1.557-2.132,2.4
		c-0.733,0.845-1.379,1.623-1.937,2.335c-0.402,0.409-0.691,0.915-0.841,1.468c0,0.8,0.431,1.2,1.293,1.2
		c1.435,0.004,2.865-0.152,4.265-0.465c1.4-0.313,2.83-0.469,4.265-0.466c0.517,0,1.227,0.044,2.132,0.133
		c0.902,0.089,1.809,0.111,2.714,0.067c0.812-0.017,1.608-0.223,2.327-0.6c0.662-0.387,1.04-1.123,0.968-1.887
		c-0.074-1.197-0.502-2.345-1.228-3.3c-0.669-0.835-1.093-1.839-1.226-2.9c0-0.898,0.388-1.347,1.163-1.348
		c1.815,0.054,3.584,0.581,5.132,1.529c1.832,1.048,3.494,2.367,4.93,3.913c1.469,1.561,2.698,3.332,3.648,5.254
		c0.877,1.663,1.359,3.506,1.409,5.386c0.079,2.057-0.557,4.079-1.8,5.72c-1.29,1.55-3.244,2.391-5.257,2.261
		c-2.224,0-3.699-0.6-4.424-1.8c-0.734-1.216-1.194-2.578-1.346-3.99c-0.171-1.463-0.342-2.815-0.513-4.056
		c-0.014-1.046-0.873-1.883-1.919-1.869c-0.045,0.001-0.09,0.003-0.135,0.007c-0.37,0.02-0.736,0.087-1.089,0.2
		c-0.471,0.132-0.706,0.378-0.706,0.731v13.3c0,0.976,0.898,2.04,2.694,3.192c1.796,1.152,3.763,2.504,5.9,4.056
		c2.17,1.584,4.15,3.415,5.9,5.454c1.797,2.085,2.757,4.763,2.694,7.515c0.06,2.013-0.335,4.013-1.154,5.852
		c-0.771,1.596-2.438,2.394-5,2.394c-1.466,0.099-2.9-0.462-3.911-1.529c-0.936-1.091-1.596-2.391-1.924-3.791
		c-0.402-1.614-0.66-3.261-0.771-4.921c-0.13-1.773-0.258-3.413-0.383-4.921c-0.087-1.287-0.324-2.559-0.706-3.791
		c-0.345-1.018-0.941-1.529-1.8-1.529c-0.456,0.014-0.881,0.235-1.154,0.6c-0.328,0.373-0.589,0.801-0.77,1.264v36.311
		c-0.041,1.033-0.747,1.921-1.744,2.194c-1.27,0.518-2.592,0.896-3.943,1.129c-1.472,0.266-2.962,0.422-4.458,0.466
		c-1.509,0.043-2.565,0.066-3.167,0.067c-0.635,0.081-1.215-0.369-1.296-1.004c-0.014-0.108-0.012-0.218,0.005-0.325v-32.581
		c0-0.71-0.26-1.064-0.776-1.064c-0.863,0-1.767,0.6-2.714,1.8c-1.078,1.398-2.03,2.888-2.844,4.454
		c-0.948,1.776-1.895,3.704-2.842,5.785c-0.947,2.081-1.894,4.007-2.843,5.779c-0.814,1.567-1.764,3.059-2.841,4.459
		c-0.948,1.2-1.853,1.8-2.714,1.8c-0.775,0-1.163-0.356-1.163-1.064c-0.005-3.961,0.428-7.91,1.291-11.775
		c0.857-3.857,1.633-7.78,2.326-11.771c0.258-1.596,0.452-3.214,0.581-4.854c0.129-1.64,0.28-3.258,0.453-4.854
		c0.009-0.227,0.052-0.451,0.128-0.665c0.085-0.267,0.215-0.4,0.388-0.4c1.036,0.001,2.063,0.181,3.037,0.533
		c0.989,0.355,1.98,0.731,2.972,1.129s1.983,0.775,2.972,1.131c0.974,0.351,2.002,0.531,3.038,0.531
		c0.312,0.016,0.608-0.137,0.775-0.4c0.133-0.726,0.198-1.462,0.195-2.2c0.041-1.196,0.062-2.526,0.063-3.99v-6.848
		c0.099-0.633-0.333-1.227-0.966-1.326c-0.108-0.017-0.217-0.019-0.325-0.005c-1.186,0.044-2.342,0.388-3.36,1
		c-1.208,0.667-2.371,1.376-3.49,2.127c-1.119,0.751-2.131,1.439-3.037,2.062c-0.591,0.516-1.348,0.8-2.132,0.8L296.378,208.276z
		 M293.534,159.732c0.844,0.075,1.672,0.277,2.455,0.6c1.121,0.4,2.265,0.734,3.425,1c1.035,0.254,2.1,0.365,3.165,0.332
		c0.822,0.046,1.569-0.476,1.809-1.263c0.201-0.717,0.309-1.456,0.323-2.2c0.043-0.93,0.107-1.706,0.195-2.327
		s0.258-1.949,0.516-3.99s0.6-4.19,1.034-6.45c0.434-2.26,0.9-4.3,1.421-6.119s1.034-2.77,1.551-2.859
		c1.002,0.04,1.988,0.265,2.907,0.665c1.594,0.533,3.339,1.133,5.234,1.8c1.895,0.667,3.662,1.331,5.3,1.994
		c1.061,0.403,2.096,0.87,3.1,1.4c0.222,0.121,0.438,0.255,0.646,0.4c0.257,0.178,0.386,0.355,0.386,0.531
		c-0.038,0.332-0.229,0.628-0.516,0.8c-0.389,0.296-0.8,0.564-1.228,0.8c-0.456,0.258-0.931,0.481-1.421,0.666
		c-0.356,0.11-0.686,0.29-0.97,0.531c-0.69,0.62-1.338,1.287-1.939,1.994c-0.6,0.711-1.246,1.421-1.939,2.129
		c-1.809,2.041-3.704,4.036-5.685,5.985c-1.967,1.938-4.085,3.717-6.332,5.321c-0.521,0.842-0.593,1.887-0.193,2.792
		c0.423,1.139,0.964,2.231,1.614,3.258c0.688,1.109,1.355,2.218,2,3.325c0.608,0.981,0.943,2.106,0.97,3.26
		c-0.028,1.658-0.754,3.227-2,4.321c-1.128,1.195-2.687,1.89-4.33,1.929c-0.415-0.024-0.827-0.091-1.228-0.2
		c-0.572-0.136-1.133-0.314-1.679-0.531c-0.543-0.212-1.063-0.48-1.551-0.8c-0.365-0.191-0.66-0.494-0.841-0.865
		c-0.6-1.773-1.181-3.524-1.744-5.254c-0.563-1.73-1.187-3.481-1.874-5.254c-0.431-1.067-0.927-2.131-1.486-3.192
		c-0.549-1.038-1.045-2.104-1.486-3.192c-0.101-0.254-0.145-0.527-0.13-0.8L293.534,159.732z M338.377,253.897h25.585
		c0.548-0.106,1.048-0.386,1.423-0.8c0.49-0.342,0.816-0.872,0.9-1.464v-34.981c0-0.8-0.818-1.288-2.455-1.463
		c-1.846-0.181-3.703-0.226-5.556-0.133c-2.067,0.09-4.07,0.223-6.01,0.4c-1.307,0.163-2.626,0.208-3.941,0.133
		c-1.206-0.177-1.854-0.553-1.937-1.131c-0.083-0.578,0.213-0.865,0.9-0.865h39.94l0.9-0.4c0.171-0.267,0.623-0.887,1.356-1.861
		c0.733-0.974,1.487-1.994,2.262-3.06c0.776-1.063,1.465-2.06,2.067-2.992c0.348-0.481,0.652-0.993,0.906-1.529
		c0.039-3.542-0.734-7.046-2.262-10.242c-1.547-3.164-3.432-6.152-5.622-8.911c-0.431-0.533-0.905-1.133-1.421-1.8
		c-0.488-0.606-0.841-1.309-1.034-2.062l0.388-0.265c2.531,0.422,5.035,0.999,7.495,1.729c2.704,0.776,5.307,1.87,7.754,3.258
		c2.33,1.307,4.392,3.045,6.074,5.121c1.664,2.12,2.532,4.755,2.455,7.448c0.035,1.142-0.357,2.256-1.1,3.125
		c-0.721,0.831-1.522,1.588-2.392,2.261c-0.861,0.667-1.658,1.333-2.39,2c-0.691,0.576-1.094,1.427-1.1,2.327
		c0,0.798,0.355,1.554,0.97,2.062c0.664,0.592,1.378,1.128,2.132,1.6c0.775,0.488,1.485,0.976,2.132,1.463
		c0.575,0.363,0.937,0.984,0.968,1.663c-0.005,0.276-0.187,0.518-0.451,0.6c-0.222,0.112-0.463,0.18-0.711,0.2h-22.74
		c-0.635-0.082-1.216,0.367-1.297,1.002c-0.014,0.109-0.012,0.219,0.004,0.327v35.112l0.258,0.665l1.293,1.2l0.646,0.267
		c0.258,0,0.8-0.047,1.616-0.133c0.816-0.086,1.658-0.2,2.519-0.333s1.636-0.288,2.327-0.465c0.465-0.08,0.906-0.262,1.293-0.533
		l7.106-9.842l0.646-0.267c0.993,0.388,1.895,0.975,2.653,1.724c1.423,1.155,2.931,2.463,4.524,3.925
		c1.593,1.462,3.037,2.836,4.33,4.123c1.291,1.285,1.937,2.06,1.937,2.327c0.012,0.161-0.1,0.304-0.258,0.333
		c-0.169,0.043-0.342,0.066-0.516,0.067h-74.566l-0.516-0.4L338.377,253.897z M389.035,146.697c0.258-0.267,0.8-0.951,1.616-2.061
		s1.722-2.262,2.714-3.458c0.992-1.196,1.894-2.261,2.714-3.192c0.82-0.931,1.313-1.4,1.486-1.4c0.878,0.37,1.687,0.888,2.39,1.531
		c1.333,1.019,2.777,2.194,4.33,3.523c1.553,1.329,2.997,2.615,4.33,3.858c0.848,0.745,1.646,1.545,2.39,2.394l-0.388,0.531
		c-4.133,0-8.225,0.155-12.276,0.466c-4.051,0.311-8.144,0.465-12.279,0.463c-7.583,0-15.143,0.044-22.68,0.133
		c-7.537,0.089-15.097,0.133-22.68,0.133c-0.775,0-1.184-0.42-1.228-1.264s0.408-1.263,1.358-1.263h47.3L389.035,146.697z
		 M347.941,153.747c2.708,0.342,5.346,1.104,7.818,2.261c2.449,1.15,4.975,2.128,7.56,2.927c0.137,0.149,0.289,0.283,0.453,0.4
		c0.14,0.104,0.251,0.241,0.323,0.4c-0.087,0.088-0.346,0.311-0.776,0.665s-0.926,0.755-1.486,1.2s-1.1,0.865-1.616,1.264
		c-0.361,0.267-0.706,0.556-1.033,0.865c-0.948,0.882-2.112,2.032-3.491,3.451s-2.844,2.793-4.393,4.123
		c-1.468,1.27-3.047,2.405-4.718,3.392c-1.295,0.84-2.789,1.323-4.33,1.4c-0.384,0.046-0.732-0.228-0.778-0.612
		c-0.007-0.062-0.006-0.126,0.003-0.188c0.139-1.438,0.398-2.862,0.775-4.256c0.517-2.215,1.141-4.543,1.874-6.983
		c0.733-2.44,1.443-4.679,2.132-6.717c0.689-2.037,1.25-3.234,1.681-3.59 M353.366,205.087c-0.258-0.353-0.969-1.728-2.132-4.123
		c-1.163-2.395-2.348-4.989-3.555-7.781c-1.208-2.792-2.308-5.363-3.3-7.713c-0.629-1.299-1.127-2.658-1.486-4.056
		c0-0.177,0.13-0.31,0.388-0.4c0.207-0.078,0.425-0.122,0.646-0.133c2.198-0.031,4.379,0.4,6.4,1.264
		c2.392,0.945,4.651,2.196,6.72,3.723c2.052,1.491,3.842,3.311,5.3,5.387c1.345,1.81,2.09,3.995,2.132,6.25
		c0.071,1.48-0.264,2.952-0.968,4.256c-0.609,1.028-1.478,1.876-2.52,2.46c-1.095,0.596-2.31,0.938-3.555,1
		c-1.358,0.089-2.721,0.045-4.07-0.133 M383.994,158.938c0.136,0.149,0.287,0.283,0.451,0.4c0.14,0.103,0.251,0.241,0.323,0.4
		c-0.087,0.088-0.13,0.155-0.13,0.2s-0.043,0.113-0.128,0.2c-0.949,0.978-2.371,2.352-4.265,4.123
		c-1.894,1.771-3.919,3.522-6.074,5.254c-2.005,1.622-4.098,3.132-6.269,4.523c-1.455,1.078-3.173,1.743-4.974,1.927
		c-0.518,0-0.821-0.087-0.906-0.267c-0.105-0.298-0.149-0.615-0.128-0.93c0.077-0.838,0.25-1.664,0.516-2.462
		c0.343-1.196,0.774-2.548,1.293-4.056c0.519-1.508,1.1-3.059,1.744-4.654c0.647-1.596,1.293-3.059,1.939-4.389
		c0.646-1.33,1.227-2.438,1.744-3.325c0.518-0.885,0.948-1.329,1.293-1.329c0.878,0.086,1.744,0.264,2.585,0.531
		c1.291,0.355,2.67,0.776,4.135,1.264c1.465,0.488,2.844,0.976,4.136,1.463c1.291,0.488,2.196,0.865,2.714,1.131 M378.436,205.226
		c-0.691,0-1.314-0.022-1.874-0.067s-1.186-0.067-1.874-0.067c-0.173,0-0.433-0.353-0.776-1.063s-0.56-1.153-0.645-1.331
		c-0.949-2.304-1.811-4.61-2.585-6.917c-0.769-2.289-1.719-4.512-2.842-6.65c-0.293-0.551-0.617-1.085-0.97-1.6
		c-0.475-0.708-0.97-1.439-1.486-2.194c-0.516-0.755-0.99-1.465-1.422-2.132c-0.295-0.376-0.514-0.804-0.646-1.263
		c-0.042-0.285,0.119-0.561,0.388-0.665c0.249-0.087,0.511-0.132,0.775-0.133c2.38,0.04,4.737,0.467,6.98,1.263
		c2.472,0.831,4.819,1.995,6.978,3.458c2.108,1.419,3.927,3.224,5.362,5.321c1.398,2.01,2.143,4.402,2.132,6.85
		c0,2.572-0.646,4.412-1.937,5.519c-1.592,1.205-3.565,1.795-5.557,1.663 M383.218,174.362c0.106-1.41,0.409-2.797,0.9-4.123
		c0.6-1.863,1.333-3.791,2.2-5.785c0.867-1.994,1.728-3.9,2.584-5.719c0.611-1.348,1.302-2.659,2.069-3.925
		c0.517-0.708,0.99-1.062,1.421-1.063c1.08,0.122,2.142,0.367,3.165,0.731c1.594,0.488,3.253,1.064,4.976,1.729
		c1.578,0.598,3.112,1.309,4.588,2.127c1.333,0.755,2,1.355,2,1.8c0,0.8-1.033,2.019-3.1,3.658s-4.436,3.323-7.108,5.054
		c-2.671,1.729-5.255,3.236-7.753,4.521c-2.498,1.285-4.178,1.928-5.041,1.929c-0.445,0.055-0.849-0.262-0.904-0.706
		c-0.009-0.075-0.008-0.15,0.004-0.225"/>
	<path id="Path_33" fill="#070203" stroke="#000000" stroke-linecap="round" d="M488.159,229.408l1.163-1.318l0.258-0.661v-10.941
		c0.042-0.627-0.286-1.221-0.84-1.518c-0.533-0.299-1.133-0.458-1.744-0.461c-1.317,0.03-2.606,0.39-3.748,1.046
		c-1.293,0.697-2.671,1.48-4.135,2.351c-1.464,0.871-2.993,1.697-4.588,2.48c-1.594,0.783-3.332,1.228-5.106,1.306l-0.9-0.4
		l-0.128-0.132l-0.388-0.928c0-5.033-0.151-10.044-0.453-15.033s-0.452-10.001-0.451-15.036c0-0.795,0.431-1.192,1.293-1.193
		c1.426,0.035,2.823,0.416,4.07,1.109c1.423,0.739,2.866,1.522,4.33,2.349s2.97,1.611,4.517,2.354
		c1.49,0.725,3.126,1.104,4.783,1.108h27.654c0.784-0.145,1.492-0.562,2-1.176c0.816-0.785,1.677-1.634,2.584-2.549
		s1.725-1.764,2.455-2.547c0.733-0.785,1.272-1.177,1.616-1.176c0.971,0.209,1.839,0.75,2.455,1.529
		c1.033,1.019,2.109,2.017,3.23,2.992c0.971,0.878,2.059,1.619,3.232,2.2c0.813,0.475,1.857,0.202,2.333-0.611
		c0.047-0.081,0.088-0.166,0.121-0.254c0.504-0.989,0.77-2.082,0.776-3.192c0.057-1.169,0.186-2.334,0.388-3.487
		c0.083-0.273,0.172-0.55,0.258-0.825c0.084-0.268,0.127-0.547,0.128-0.828c0-1.008-0.388-1.512-1.163-1.513h-69.908
		c-0.156,0.02-0.309,0.065-0.451,0.133c-0.143,0.069-0.296,0.114-0.453,0.133c-0.431,0.445-0.754,1.686-0.968,3.725
		c-0.255,2.215-0.731,4.398-1.423,6.517c-0.717,2.276-1.857,4.396-3.36,6.25c-1.507,1.863-3.812,2.794-6.913,2.794
		c-2.028,0.048-3.997-0.691-5.492-2.062c-1.528-1.418-2.356-3.436-2.262-5.519c0.006-1.524,0.48-3.01,1.358-4.256
		c0.961-1.396,2.09-2.668,3.36-3.79c1.32-1.186,2.723-2.274,4.2-3.258c1.467-0.976,2.716-1.818,3.748-2.527
		c0.859-0.62,1.678-1.241,2.455-1.862c0.812-0.646,1.677-1.225,2.584-1.729c0.614,0.35,1.126,0.855,1.486,1.463
		c0.56,0.8,1.013,1.421,1.358,1.862c1.446,0.286,2.921,0.397,4.393,0.331c2.585,0.047,5.429,0.047,8.531,0
		c3.102-0.047,6.053-0.091,8.852-0.132c2.8-0.045,4.631-0.067,5.492-0.067l28.817-0.4c2.152,0,4.414,0.022,6.785,0.067
		c2.224,0.053,4.448-0.058,6.655-0.333c0.565-0.087,1.099-0.316,1.551-0.665c0.717-0.466,1.387-1.002,2-1.6
		c0.595-0.566,1.157-1.167,1.681-1.8c0.403-0.415,0.653-0.954,0.71-1.529c0-0.267-0.516-0.954-1.549-2.061s-2.196-2.327-3.49-3.658
		c-1.293-1.329-2.542-2.593-3.748-3.79c-1.206-1.197-1.981-1.97-2.326-2.318l-0.9-0.4h-0.646l-0.9,0.4
		c-3.107,3.046-6.554,5.723-10.273,7.981c-3.645,2.34-7.702,3.965-11.954,4.788c-0.738,0.199-1.498,0.311-2.262,0.333
		c-0.769,0.066-1.543-0.048-2.261-0.333l0.128-0.265c0.948-0.8,1.939-1.554,2.974-2.262c1.05-0.722,2.043-1.522,2.972-2.394
		c1.854-1.642,3.582-3.42,5.169-5.321c1.435-1.727,2.65-3.626,3.618-5.652c0.961-2.033,1.74-4.147,2.326-6.317
		c0.639-2.404,1.115-4.848,1.423-7.316c0.172-1.612,0.237-3.234,0.193-4.854c-0.045-1.638,0.151-3.273,0.581-4.854
		c0.172-0.885,0.6-1.329,1.293-1.329c0.517,0,1.55,0.044,3.1,0.133c1.55,0.089,3.165,0.222,4.846,0.4
		c1.526,0.153,3.038,0.42,4.523,0.8c1.334,0.357,2,0.8,2,1.331c-0.017,0.511-0.149,1.011-0.386,1.463
		c-1.175,2.815-2.168,5.703-2.972,8.646c-0.833,2.898-1.268,5.896-1.293,8.911c-0.024,0.784,0.063,1.567,0.258,2.327
		c0.172,0.578,0.818,0.865,1.939,0.865c1.429-0.08,2.719-0.881,3.423-2.127c1.074-1.578,1.964-3.275,2.65-5.056
		c0.754-1.884,1.379-3.816,1.872-5.784c0.473-1.906,0.797-3.391,0.97-4.456l0.646-0.4c0.918,0.319,1.805,0.721,2.65,1.2
		c1.163,0.621,2.369,1.286,3.618,1.994s2.498,1.418,3.746,2.129c1.248,0.709,2.261,1.243,3.038,1.6l0.257,0.531l-0.257,0.533
		c-0.691,0.267-1.898,0.776-3.62,1.529c-1.722,0.753-3.509,1.595-5.362,2.527c-1.854,0.933-3.534,1.842-5.041,2.727
		c-1.005,0.486-1.905,1.163-2.649,1.994c-0.069,0.123-0.113,0.259-0.128,0.4c-0.016,0.141-0.06,0.277-0.13,0.4
		c0.328,0.893,1.005,1.614,1.874,2c1.17,0.67,2.378,1.271,3.618,1.8c1.333,0.578,2.647,1.111,3.941,1.6
		c1.003,0.345,1.959,0.815,2.844,1.4c0.631,0.477,1.196,1.036,1.679,1.663c0.462,0.685,0.689,1.502,0.646,2.327v9.31l0.388,0.931
		c0.171,0.178,0.495,0.511,0.97,1c0.471,0.488,0.97,1,1.486,1.529c0.516,0.529,0.97,1.043,1.356,1.529
		c0.276,0.279,0.477,0.623,0.583,1c0,0.533-0.905,1.242-2.715,2.127s-3.877,1.816-6.2,2.794c-2.327,0.978-4.567,1.887-6.72,2.727
		c-1.472,0.526-2.898,1.171-4.265,1.929c-0.823,0.479-1.583,1.06-2.262,1.727c-0.726,0.692-1.125,1.658-1.1,2.66v13.3
		c0,0.888-0.603,1.575-1.809,2.062c-1.351,0.525-2.762,0.883-4.2,1.065c-1.563,0.22-3.138,0.353-4.716,0.4
		c-1.551,0.047-2.629,0.067-3.232,0.067c-0.696,0.07-1.393-0.134-1.941-0.569c-0.327-0.325-0.59-0.709-0.776-1.131
		c-0.173-0.4-0.345-0.775-0.516-1.131c-0.211-0.381-0.6-0.631-1.034-0.665c-0.258,0-0.733-0.02-1.421-0.067s-1.4-0.067-2.132-0.067
		s-1.4,0.023-2,0.067c-0.396,0.007-0.788,0.074-1.163,0.2c-0.693,0.447-1.341,0.959-1.937,1.529c-0.62,0.589-1.27,1.145-1.948,1.665
		c-2.412,1.863-4.566,3.636-6.462,5.321c-2.093,1.92-3.918,4.112-5.427,6.517c-0.173,0.267-0.345,0.531-0.516,0.8
		c-0.209,0.282-0.551,0.434-0.9,0.4H476.27c-0.635-0.082-1.216,0.367-1.297,1.002c-0.014,0.109-0.012,0.219,0.004,0.327v15.96
		c-0.099,0.632,0.333,1.225,0.966,1.325c0.108,0.017,0.219,0.018,0.327,0.004h43.55c0.518,0,0.776,0.286,0.776,0.865
		s-0.258,0.865-0.776,0.865h-42.511l-3.36,3.192c-0.949,0.8-1.811,1.576-2.585,2.329c-0.522,0.563-1.133,1.036-1.809,1.4
		c-0.691,0.298-1.404,0.543-2.132,0.731c-1.103,0.315-2.226,0.559-3.36,0.731c-1.046,0.171-2.11,0.216-3.167,0.133
		c-0.948-0.09-1.422-0.4-1.421-0.931l-0.9-35.112c-0.099-0.632,0.333-1.225,0.966-1.325c0.108-0.017,0.219-0.018,0.327-0.004
		c2.393-0.002,4.771,0.379,7.043,1.129c2.281,0.755,4.542,1.575,6.783,2.46s4.503,1.706,6.785,2.462
		c2.268,0.746,4.642,1.124,7.03,1.119L488.159,229.408z M443.059,158.25c0.003-1.516,0.553-2.98,1.55-4.123
		c1.408-1.724,3.088-3.207,4.974-4.389c1.863-1.161,3.54-2.596,4.976-4.256c0.43-0.443,0.73-0.665,0.9-0.665
		c0.688,0,1.118,0.511,1.293,1.529c0.145,0.768,0.232,1.546,0.258,2.327c0,4.523-0.733,7.914-2.2,10.175s-3.06,3.657-4.781,4.19
		c-1.601,0.547-3.365,0.326-4.781-0.6c-1.445-0.889-2.289-2.496-2.2-4.19 M446.408,179.129c0.679-1.18,1.553-2.237,2.584-3.125
		c1.551-1.551,3.251-3.369,5.1-5.454c1.849-2.085,3.637-4.258,5.364-6.517c1.496-1.834,2.636-3.932,3.36-6.185
		c0.69-2.312,1.081-4.703,1.163-7.115c0.085-2.437,0.214-4.853,0.388-7.248c0.085-0.974,0.13-1.929,0.13-2.86
		c0.001-0.959,0.087-1.916,0.258-2.859c0.171-0.886,0.602-1.33,1.291-1.331c0.518,0,1.551,0.022,3.1,0.067
		c1.549,0.045,3.121,0.155,4.718,0.332c1.462,0.157,2.913,0.404,4.345,0.738c1.291,0.311,1.937,0.732,1.937,1.263
		c-0.113,0.434-0.31,0.842-0.581,1.2c-0.388,0.623-0.819,1.399-1.293,2.329c-0.514,1.028-0.946,2.095-1.291,3.192
		c-0.392,1.225-0.588,2.505-0.581,3.791v3.856c-0.005,1.303,0.169,2.6,0.516,3.856c0.088,0.358,0.24,0.697,0.451,1
		c0.25,0.204,0.535,0.361,0.841,0.465c0.547,0.158,1.11,0.247,1.679,0.267c0.775-0.443,1.441-1.529,2-3.258
		c0.559-1.729,1.097-3.524,1.616-5.387c0.518-1.861,0.992-3.545,1.423-5.052s0.904-2.261,1.421-2.262
		c0.684,0.163,1.339,0.433,1.939,0.8c1.033,0.533,2.109,1.133,3.23,1.8c1.121,0.667,2.133,1.287,3.037,1.862
		c0.905,0.578,1.357,0.955,1.356,1.131c0,0.886-0.689,1.817-2.067,2.792c-1.378,0.975-2.886,1.929-4.523,2.86
		c-1.637,0.933-3.145,1.798-4.523,2.594s-2.067,1.461-2.067,1.994c0,0.711,0.536,1.309,1.616,1.8c1.24,0.576,2.448,1.22,3.618,1.929
		c1.349,0.81,2.569,1.819,3.618,2.992c1.146,1.4,1.723,3.181,1.616,4.988c0.097,1.673-0.459,3.318-1.551,4.589
		c-1.159,1.158-2.759,1.764-4.394,1.662c-1.019,0.018-2.037-0.072-3.037-0.267c-0.973-0.282-1.818-0.893-2.39-1.729
		c-0.627-0.957-1.086-2.014-1.358-3.125c-0.475-1.551-0.97-3.147-1.486-4.788c-0.463-1.498-1.024-2.964-1.679-4.389
		c-0.605-1.285-1.251-1.928-1.939-1.929c-1.104,0.18-2.098,0.774-2.779,1.662c-1.078,1.109-2.198,2.373-3.36,3.791
		s-2.304,2.815-3.425,4.19c-0.833,1.104-1.836,2.069-2.972,2.859c-1.044,0.636-2.122,1.213-3.23,1.729
		c-1.467,0.711-3.018,1.421-4.653,2.129c-1.635,0.708-3.207,1.322-4.715,1.841c-1.093,0.443-2.249,0.713-3.425,0.8L446.408,179.129z
		 M483.509,211.451c-0.1,0.632,0.331,1.225,0.963,1.324c0.109,0.017,0.22,0.019,0.33,0.005h30.237
		c0.635,0.082,1.216-0.367,1.297-1.002c0.014-0.109,0.013-0.219-0.005-0.327v-12.369c0.099-0.634-0.334-1.227-0.968-1.326
		c-0.108-0.017-0.217-0.018-0.325-0.005h-30.24c-0.636-0.08-1.216,0.371-1.295,1.007c-0.013,0.108-0.012,0.217,0.005,0.324V211.451z
		 M521.889,228.342c0.258-0.267,0.753-0.8,1.486-1.6c0.73-0.8,1.486-1.6,2.261-2.394c0.775-0.794,1.529-1.531,2.262-2.2
		c0.733-0.669,1.228-1,1.486-1c0.766,0.437,1.501,0.926,2.2,1.463c1.377,0.976,2.885,2.084,4.523,3.325
		c1.638,1.241,3.146,2.415,4.523,3.523c1.377,1.111,2.153,1.754,2.327,1.929c0.172,0.349,0.121,0.767-0.13,1.064
		c-0.298,0.397-0.646,0.754-1.034,1.063c-0.429,0.354-0.838,0.732-1.226,1.131c-0.333,0.287-0.542,0.693-0.583,1.131v18.621
		c0,0.975-0.646,1.75-1.937,2.327c-1.429,0.616-2.926,1.062-4.459,1.329c-1.646,0.306-3.306,0.528-4.974,0.665
		c-1.639,0.133-2.803,0.2-3.49,0.2c-0.517,0-0.926-0.554-1.228-1.662c-0.325-1.242-0.541-2.51-0.646-3.79
		c-0.128-1.421-0.192-2.795-0.193-4.123v-2.66c0-2.395,0.064-4.79,0.193-7.183c0.129-2.393,0.193-4.787,0.193-7.181
		c0.099-0.632-0.333-1.225-0.966-1.324c-0.108-0.017-0.217-0.018-0.325-0.005c-0.605,0-1.596,0.022-2.974,0.067
		c-1.378,0.045-2.972,0.066-4.781,0.065h-11.054c-1.679,0-3.123-0.022-4.33-0.065c-0.748,0.04-1.497-0.073-2.2-0.333
		c0.171-0.267,0.795-0.51,1.872-0.731s2.434-0.421,4.071-0.6c1.636-0.178,3.403-0.311,5.3-0.4s3.706-0.155,5.427-0.2
		c1.723-0.043,3.274-0.066,4.653-0.067h2.842L521.889,228.342z M509.223,144.684c0.705,0.56,1.091,1.429,1.034,2.327
		c0.083,1.2,0.128,2.151,0.128,2.86c-0.003,1.466-0.089,2.931-0.258,4.388c-0.143,1.396-0.492,2.764-1.034,4.058
		c-0.494,1.169-1.298,2.181-2.326,2.925c-1.266,0.82-2.759,1.216-4.265,1.131c-1.267,0.041-2.527-0.209-3.683-0.731
		c-0.991-0.487-1.487-1.617-1.486-3.392c0.028-1.409,0.528-2.768,1.421-3.858c0.954-1.244,2.063-2.362,3.3-3.325
		c1.249-0.975,2.477-1.994,3.683-3.058c0.52-0.445,0.977-0.96,1.358-1.529c0.382-0.569,0.838-1.083,1.358-1.529
		c0.21-0.192,0.491-0.289,0.775-0.267"/>
	<g id="Group_9" transform="translate(324.054 443.6)">
		<path id="Path_35" fill="#070203" stroke="#000000" stroke-linecap="round" d="M-302.815-264.37c-0.646-0.265-1.374-0.24-2,0.067
			c-0.821,0.312-1.681,0.686-2.585,1.129c-0.904,0.443-1.809,0.888-2.714,1.331c-0.736,0.399-1.553,0.626-2.39,0.665
			c-0.6,0-0.9-0.22-0.9-0.665c0.005-0.194,0.073-0.381,0.193-0.533c0.138-0.188,0.29-0.365,0.453-0.531
			c1.741-1.788,3.716-3.331,5.872-4.588c2.172-1.269,4.266-2.668,6.269-4.19c6.128-4.801,11.64-10.341,16.411-16.492
			c4.759-5.974,9.077-12.286,12.92-18.887c0.168-0.172,0.299-0.376,0.386-0.6c0.085-0.22,0.3-0.333,0.646-0.333
			c0.372,0.034,0.74,0.101,1.1,0.2c0.558,0.133,1.163,0.288,1.809,0.465c0.646,0.177,1.269,0.356,1.874,0.533
			c0.605,0.177,1.033,0.312,1.291,0.4c2.671,0.711,5.277,1.509,7.819,2.394c2.585,0.9,5.245,1.57,7.948,2l0.386,0.531l-0.386,0.665
			c-1.996,0.633-3.889,1.551-5.622,2.727c-1.59,1.106-3.08,2.351-4.451,3.72c-1.379,1.376-2.736,2.795-4.071,4.256
			c-1.381,1.504-2.871,2.904-4.458,4.188c-0.605,0.447-1.682,1.18-3.232,2.2c-1.55,1.02-3.337,2.173-5.362,3.458
			c-2.025,1.286-4.136,2.616-6.332,3.99c-2.196,1.374-4.199,2.66-6.01,3.858c-1.809,1.196-3.317,2.26-4.523,3.192
			c-1.206,0.932-1.809,1.532-1.809,1.8c0,0.355,0.367,0.755,1.1,1.2c0.8,0.479,1.643,0.881,2.519,1.2
			c0.948,0.355,1.874,0.665,2.779,0.93c0.607,0.207,1.236,0.342,1.874,0.4h52.6c0.476-0.471,0.993-0.9,1.544-1.28
			c0.697-0.495,1.364-1.029,2-1.6c0.626-0.553,1.209-1.153,1.744-1.794c0.452-0.468,0.727-1.08,0.776-1.729
			c-0.556-0.749-1.208-1.421-1.939-2c-0.907-0.742-1.857-1.43-2.844-2.062l-3.1-1.994c-0.861-0.539-1.681-1.141-2.454-1.8
			c-1.202-1.02-2.346-2.108-3.425-3.258c-1.509-1.551-3.017-3.213-4.524-4.988c-1.414-1.646-2.729-3.374-3.938-5.175
			c-0.89-1.115-1.47-2.445-1.681-3.856c0-0.267,0.215-0.4,0.646-0.4c0.495,0.04,0.978,0.176,1.421,0.4
			c0.6,0.265,1.228,0.578,1.874,0.931c0.646,0.353,1.271,0.71,1.874,1.063c0.497,0.303,1.016,0.571,1.551,0.8
			c3.961,1.951,8.065,3.597,12.276,4.923c4.198,1.324,8.472,2.39,12.8,3.192c1.894,0.355,3.768,0.688,5.621,1
			c1.853,0.312,3.727,0.601,5.622,0.866c1.068,0.182,2.147,0.293,3.23,0.332c1.101,0.043,2.189,0.245,3.232,0.6
			c0.412,0.166,0.77,0.443,1.034,0.8l-0.26,0.533c-1.288,0.973-2.44,2.113-3.425,3.392c-0.881,1.162-1.68,2.384-2.39,3.657
			c-0.689,1.243-1.378,2.506-2.067,3.791s-1.464,2.637-2.326,4.056c-0.703,1.165-1.651,2.164-2.779,2.925
			c-1.124,0.75-2.146,1.644-3.037,2.66c-0.156,0.562-0.222,1.146-0.195,1.729c-0.043,1.067-0.086,2.397-0.128,3.99
			c-0.042,1.593-0.042,3.322,0,5.187c0.041,1.863,0.063,3.658,0.065,5.387v7.115c0,0.8-0.56,1.467-1.681,2
			c-1.229,0.572-2.504,1.041-3.811,1.4c-1.377,0.391-2.781,0.68-4.2,0.865c-0.985,0.145-1.977,0.234-2.972,0.267
			c-0.557,0.043-1.11-0.123-1.551-0.466c-0.329-0.289-0.612-0.626-0.84-1c-0.222-0.361-0.482-0.696-0.776-1
			c-0.412-0.349-0.948-0.517-1.486-0.466c-0.479,0.013-0.946,0.151-1.356,0.4c-0.452,0.226-0.73,0.695-0.711,1.2
			c0.16,0.932,0.641,1.778,1.358,2.394c1.006,1.072,2.085,2.072,3.23,2.993c1.181,0.97,2.41,1.879,3.683,2.725
			c1.206,0.8,2.068,1.376,2.585,1.729c-0.013,0.145,0.034,0.289,0.128,0.4l0.258,0.267c0.085,0.355-0.109,0.776-0.581,1.263
			c-0.411,0.356-0.666,0.858-0.711,1.4v31.523c0,0.708-0.624,1.329-1.872,1.862c-1.384,0.576-2.81,1.044-4.266,1.4
			c-1.555,0.39-3.129,0.701-4.716,0.931c-1.026,0.168-2.061,0.278-3.1,0.331c-1.379,0-2.198-0.376-2.455-1.129
			c-0.264-0.793-0.396-1.624-0.388-2.46c0.003-0.822-0.039-1.644-0.128-2.462c-0.087-0.753-0.691-1.129-1.809-1.129
			c-5.084,0-10.124,0.155-15.121,0.465c-4.997,0.31-10.036,0.465-15.119,0.466c-0.403,0.027-0.777,0.219-1.034,0.531
			c-2.11,2.131-4.559,3.897-7.246,5.227c-2.747,1.113-5.697,1.634-8.659,1.529c-0.635,0.081-1.215-0.369-1.296-1.004
			c-0.014-0.108-0.012-0.218,0.005-0.325v-43.36c0.061-0.746-0.495-1.4-1.241-1.46c-0.061-0.005-0.122-0.006-0.182-0.003
			c-1.052-0.09-2.11-0.112-3.165-0.067c-1.056,0.048-2.114,0.026-3.167-0.065c-0.95-0.088-1.421-0.533-1.421-1.331v-32.983
			L-302.815-264.37z M-288.6-238.435c-0.099,0.632,0.333,1.225,0.966,1.325c0.108,0.017,0.219,0.019,0.327,0.005h19
			c0.635,0.081,1.216-0.368,1.297-1.004c0.014-0.108,0.012-0.217-0.004-0.325v-21.281c0.098-0.634-0.337-1.227-0.97-1.325
			c-0.107-0.017-0.215-0.018-0.323-0.004h-19c-0.635-0.082-1.216,0.367-1.297,1.002c-0.014,0.109-0.013,0.219,0.004,0.327V-238.435z
			 M-244.274-226.07l5.688-5.715c0.172-0.177,0.213-0.665,0.128-1.464c-0.085-0.799-0.431-1.2-1.034-1.2h-47.294
			c-0.513-0.002-0.995,0.246-1.291,0.665c-0.335,0.414-0.518,0.93-0.518,1.463c0.049,1.071,0.6,2.056,1.486,2.66
			c1.065,0.842,2.239,1.536,3.49,2.062c1.298,0.567,2.637,1.035,4.006,1.4c1.03,0.306,2.094,0.484,3.167,0.531h31.268
			L-244.274-226.07z M-283.559-254.67v-1.921c0-0.667,0.431-1,1.293-1c1.265,0.046,2.494,0.436,3.553,1.129
			c1.302,0.798,2.496,1.759,3.553,2.86c1.076,1.099,2.008,2.33,2.774,3.663c0.679,1.103,1.058,2.363,1.1,3.657
			c0.052,1.572-0.643,3.076-1.874,4.056c-1.132,0.977-2.575,1.52-4.071,1.531c-1.418,0.092-2.8-0.472-3.748-1.531
			c-0.895-1.085-1.535-2.357-1.872-3.723c-0.394-1.499-0.61-3.039-0.646-4.589c-0.045-1.596-0.066-2.97-0.065-4.123
			 M-276.972-193.347l0.13,0.133l0.9,0.4h31.798c0.636,0.08,1.216-0.37,1.296-1.006c0.014-0.108,0.012-0.218-0.005-0.325v-27.531
			c0.099-0.633-0.333-1.227-0.966-1.326c-0.108-0.017-0.217-0.019-0.325-0.005h-31.921c-0.635-0.081-1.215,0.368-1.296,1.003
			c-0.014,0.109-0.012,0.219,0.005,0.328v11.437c0.016,0.406,0.151,0.799,0.386,1.131c0.275,0.461,0.41,0.992,0.388,1.529
			c-0.055,0.368-0.164,0.726-0.323,1.063c-0.183,0.432-0.334,0.877-0.451,1.331c-0.175,1.812-0.218,3.634-0.13,5.452
			c0.085,1.863,0.128,3.681,0.13,5.454L-276.972-193.347z M-257.972-274.347c1.206-1.333,2.348-2.685,3.425-4.056
			c1.081-1.383,2.013-2.876,2.779-4.456l0.775-0.4l0.776,0.267c0.517,0.533,1.25,1.243,2.2,2.129
			c0.95,0.886,1.941,1.794,2.974,2.725c1.033,0.933,1.98,1.842,2.842,2.727c0.595,0.588,1.156,1.21,1.681,1.862l-0.258,0.531
			l-0.9,0.4h-34.128c-0.368-0.014-0.654-0.324-0.64-0.691c0.013-0.348,0.292-0.626,0.64-0.64h16.93L-257.972-274.347z
			 M-253.191-238.97c0.033,0.507,0.295,0.972,0.711,1.264c0.367,0.355,0.848,0.567,1.358,0.6c0.859,0,1.57-1.086,2.132-3.258
			c0.562-2.172,1.057-4.566,1.486-7.181c0.43-2.615,0.861-5.01,1.293-7.183c0.432-2.173,0.992-3.259,1.679-3.258
			c0.866,0.019,1.721,0.2,2.52,0.533c0.905,0.355,1.831,0.731,2.779,1.129c0.948,0.398,1.895,0.753,2.842,1.064
			c0.96,0.313,1.964,0.47,2.974,0.465c0.672,0.011,1.284-0.384,1.551-1c0.342-0.657,0.519-1.387,0.516-2.127
			c0.004-0.721-0.105-1.439-0.323-2.127c-0.217-0.666-0.5-1-0.84-1h-11.631c-0.37,0.008-0.729,0.123-1.034,0.332
			c-0.346,0.223-0.751,0.339-1.163,0.333c-0.594-0.029-1.181-0.141-1.744-0.333c-0.743-0.223-1.498-0.4-2.262-0.531
			c-0.659-0.129-1.334-0.152-2-0.067c-0.561,0.09-0.842,0.49-0.841,1.2L-253.191-238.97z M-231.738-248.678
			c-0.091-0.566-0.337-1.095-0.711-1.529c-0.475-0.667-0.884-1-1.228-1c-0.344,0-1.249,0.646-2.714,1.937
			c-1.467,1.286-3.017,2.705-4.651,4.256s-3.12,3.036-4.459,4.454c-1.333,1.419-2,2.262-2,2.527
			c-0.07,0.442,0.233,0.858,0.675,0.927c0.074,0.012,0.15,0.013,0.225,0.004h13.57c0.635,0.082,1.216-0.367,1.297-1.002
			c0.014-0.109,0.012-0.219-0.004-0.327L-231.738-248.678z"/>
		<path id="Path_37" fill="#070203" stroke="#000000" stroke-linecap="round" d="M-278.496-207.047l-1.421-0.665
			c0.676-0.163,1.372-0.23,2.067-0.2c1.293-0.043,8.173-0.067,10.11-0.067h6.269c2.239,0,4.372,0.022,6.4,0.067
			c2.028,0.045,3.795,0.067,5.3,0.067h13.434c0.091,0.002,0.18,0.025,0.26,0.067c0.079,0.044,0.168,0.067,0.258,0.067l-1.551,0.665
			L-278.496-207.047z"/>
	</g>
	<g id="Group_10" transform="translate(465.65 445.266)">
		<path id="Path_39" fill="#070203" stroke="#000000" stroke-linecap="round" d="M-257.694-202.259
			c-0.012,0.204-0.105,0.395-0.258,0.531c-1.567,0.959-3.236,1.74-4.976,2.329c-2.629,1.019-5.773,2.127-9.434,3.323
			c-3.661,1.196-7.602,2.393-11.824,3.592c-4.223,1.2-8.207,2.308-11.954,3.325c-3.747,1.017-7.063,1.837-9.95,2.46
			c-1.93,0.479-3.897,0.79-5.88,0.931c-0.775,0-1.228-0.09-1.358-0.265c-0.13-0.189-0.102-0.444,0.065-0.6
			c0.219-0.264,0.482-0.489,0.776-0.665c0.279-0.172,0.539-0.373,0.775-0.6c0.948-0.621,1.918-1.198,2.909-1.729
			c1.014-0.548,1.986-1.17,2.907-1.862c5.85-3.604,11.383-7.698,16.542-12.236c0.343-0.353,0.968-0.974,1.874-1.862
			s1.854-1.797,2.844-2.727c0.989-0.933,1.915-1.776,2.777-2.527c0.861-0.751,1.464-1.129,1.809-1.129
			c0.714,0.136,1.409,0.36,2.069,0.665c1.118,0.445,2.496,0.999,4.135,1.663c1.639,0.664,3.362,1.373,5.169,2.127
			c1.809,0.755,3.49,1.509,5.041,2.262s2.887,1.396,4.006,1.927c0.682,0.283,1.332,0.64,1.937,1.064 M-237.793-300.416l7.108-7.315
			c0.137-0.017,0.269-0.062,0.388-0.133c0.118-0.071,0.249-0.117,0.386-0.133c0.809,0.482,1.587,1.017,2.327,1.6
			c1.463,1.067,3.056,2.242,4.781,3.525c1.725,1.283,3.34,2.524,4.846,3.723c0.904,0.657,1.747,1.393,2.52,2.2
			c0.075,0.068,0.121,0.163,0.128,0.265c0.006,0.103,0.053,0.199,0.13,0.267c-0.221,0.402-0.56,0.727-0.97,0.931
			c-0.475,0.267-0.97,0.533-1.486,0.8c-0.516,0.267-0.99,0.533-1.421,0.8c-0.368,0.171-0.615,0.527-0.646,0.931v14.9
			c0.044,0.459-0.219,0.892-0.646,1.064c-0.443,0.181-0.897,0.336-1.358,0.465c-0.487,0.141-0.946,0.366-1.356,0.665
			c-0.458,0.37-0.701,0.945-0.646,1.531c-0.004,1.412,0.582,2.762,1.616,3.723c1.165,1.133,2.467,2.115,3.876,2.925
			c1.506,0.888,3.014,1.753,4.523,2.594c1.278,0.668,2.436,1.545,3.425,2.594l0.258,0.665c-0.081,0.437-0.338,0.822-0.711,1.064
			c-0.387,0.267-0.796,0.533-1.228,0.8c-0.402,0.246-0.79,0.513-1.163,0.8c-0.313,0.208-0.505,0.555-0.516,0.931v42.427
			c0.028,1.208-0.773,2.279-1.939,2.594c-1.399,0.515-2.851,0.872-4.33,1.064c-1.594,0.221-3.08,0.465-4.458,0.731
			c-1.378,0.266-2.196,0.842-2.455,1.729c-0.008,0.248,0.085,0.488,0.258,0.665c1.659,1.847,3.777,3.224,6.139,3.99
			c2.541,0.888,4.996,1.797,7.366,2.727c2.242,0.855,4.319,2.093,6.139,3.658c1.723,1.507,2.584,3.812,2.584,6.915
			c0.1,2.113-0.616,4.185-2,5.785c-1.463,1.518-3.517,2.322-5.622,2.2c-1.202-0.341-2.338-0.882-3.36-1.6
			c-1.809-1.067-3.963-2.441-6.46-4.123c-2.497-1.682-5.19-3.522-8.078-5.521c-2.887-1.994-5.558-3.9-8.013-5.719
			c-2.455-1.819-4.566-3.415-6.332-4.788c-1.172-0.816-2.236-1.777-3.167-2.86c0.129-0.315,0.389-0.557,0.711-0.665
			c0.316-0.09,0.642-0.134,0.97-0.133h13.568c0.26,0,0.495-0.353,0.711-1.063c0.218-0.734,0.327-1.496,0.323-2.262
			c0.004-0.771-0.127-1.536-0.388-2.261c-0.206-0.672-0.848-1.113-1.549-1.064h-44.844c-2.35-0.016-4.693,0.252-6.978,0.8
			c-0.661,0.318-1.187,0.86-1.486,1.529c-0.647,1.049-1.453,1.992-2.39,2.794c-1.381,1.168-2.956,2.084-4.653,2.707
			c-2.616,0.9-5.376,1.307-8.141,1.2c-0.634,0.082-1.215-0.365-1.298-0.999c-0.014-0.11-0.013-0.221,0.005-0.33v-61.85
			c0-0.62,0.172-1.02,0.516-1.2c0.388-0.191,0.802-0.326,1.228-0.4c0.427-0.072,0.841-0.207,1.228-0.4
			c0.343-0.177,0.518-0.576,0.518-1.2v-32.044c0-0.8,0.43-1.2,1.291-1.2c1.288,0.044,2.549,0.387,3.683,1
			c1.333,0.667,2.712,1.398,4.136,2.194c1.424,0.796,2.888,1.527,4.393,2.194c1.442,0.653,3.005,0.993,4.588,1h42.517
			L-237.793-300.416z M-232.624-265.837l5.3-5.452l0.386-0.931c-0.009-0.446-0.052-0.891-0.128-1.331
			c-0.087-0.533-0.345-0.8-0.776-0.8h-7.234l-0.9-0.4l-0.9-0.931l-0.9-0.4h-43.05c-0.922,0.148-1.816,0.439-2.649,0.863
			c-1.337,0.578-2.737,1.245-4.2,2c-1.463,0.755-2.776,1.509-3.941,2.261c-1.163,0.755-1.744,1.265-1.744,1.531
			c0,0.443,0.343,0.886,1.034,1.329c0.762,0.483,1.561,0.906,2.39,1.263c0.882,0.392,1.788,0.727,2.714,1
			c0.607,0.207,1.236,0.342,1.874,0.4h51.82L-232.624-265.837z M-286.384-218.887c-0.1,0.632,0.331,1.225,0.963,1.324
			c0.109,0.017,0.22,0.019,0.33,0.005h52.468c0.635,0.082,1.216-0.367,1.298-1.002c0.014-0.109,0.012-0.219-0.005-0.327v-42.56
			c0.098-0.633-0.335-1.226-0.968-1.325c-0.108-0.017-0.217-0.018-0.325-0.004h-52.467c-0.635-0.082-1.216,0.367-1.298,1.002
			c-0.014,0.109-0.012,0.219,0.005,0.327L-286.384-218.887z M-280.826-297.355c-0.635-0.081-1.216,0.368-1.297,1.004
			c-0.014,0.108-0.012,0.217,0.004,0.325v15.96c-0.1,0.633,0.333,1.227,0.966,1.326c0.108,0.017,0.219,0.019,0.327,0.005h43.034
			c0.635,0.081,1.216-0.368,1.298-1.004c0.014-0.109,0.012-0.219-0.005-0.327v-15.96c0.098-0.634-0.337-1.227-0.97-1.325
			c-0.107-0.017-0.215-0.018-0.323-0.004H-280.826z"/>
		<path id="Path_41" fill="#070203" stroke="#000000" stroke-linecap="round" d="M-234.572-248.676
			c-0.105,0.096-0.246,0.144-0.388,0.133h-48.589c-0.142,0.012-0.283-0.036-0.388-0.133c0.005-0.277,0.187-0.519,0.451-0.6
			c0.222-0.112,0.463-0.18,0.711-0.2h47.041c0.247,0.02,0.489,0.088,0.71,0.2C-234.759-249.195-234.577-248.953-234.572-248.676"/>
		<path id="Path_43" fill="#070203" stroke="#000000" stroke-linecap="round" d="M-234.572-232.716
			c-0.105,0.096-0.246,0.144-0.388,0.133h-48.589c-0.142,0.012-0.283-0.036-0.388-0.133c0.005-0.277,0.187-0.519,0.451-0.6
			c0.222-0.112,0.463-0.18,0.711-0.2h47.041c0.247,0.02,0.489,0.088,0.71,0.2C-234.759-233.235-234.577-232.993-234.572-232.716"/>
	</g>
</g>
<g>
	<path fill="#040000" d="M31.594,295.245c0.902-0.98,1.178-1.255,2.08-2.234c1.408,1.058,1.804,1.372,3.059,2.431
		c0.272,0.235,0.391,0.431,0.391,0.588c0,0.353-0.315,0.588-1.293,0.981c-0.944,6.314-2.004,10.157-3.922,13.922
		c3.097,1.961,3.88,2.902,3.88,4.745c0,1.961-0.859,3.53-1.919,3.53c-0.396,0-0.668-0.235-0.944-0.823
		c-1.017-2.157-1.723-3.372-2.706-4.627c-1.412,1.999-3.216,3.843-5.33,5.411c-1.455,1.099-2.71,1.765-5.454,2.981l-0.315-0.432
		c2.825-2.236,3.727-3.137,5.177-4.941c1.412-1.764,2.472-3.451,3.569-5.687c-1.332-1.373-1.608-1.647-3.02-2.784
		c-0.311,0.941-0.391,1.216-0.821,2.471c-0.238,0.509-0.51,0.667-1.336,0.667c-0.587,0-1.961-0.118-2.353-0.196
		c-0.353-0.079-0.587-0.315-0.587-0.589c0-0.156,0.038-0.314,0.119-0.549c1.999-5.687,2.901-8.902,4.037-14.04h-1.412
		c-1.136,0-2.119,0.079-2.978,0.235l-0.238-1.411c1.255,0.274,2.08,0.352,3.335,0.352h1.451c0.825-4,1.136-6.157,1.374-9.176
		c4.743,0.667,4.862,0.667,5.33,0.863c0.277,0.118,0.396,0.274,0.396,0.471c0,0.391-0.353,0.588-1.57,0.863
		c-0.353,1.999-0.353,1.999-1.412,6.98H31.594z M28.025,296.069c-0.744,3.53-1.804,7.569-3.02,11.608
		c1.765,0.628,2.119,0.784,3.688,1.529c1.57-4.118,2.353-7.451,3.02-13.138H28.025z M49.164,291.558
		c0.902-1.098,1.178-1.411,2.157-2.431c1.489,1.059,1.923,1.373,3.216,2.431c0.353,0.314,0.51,0.549,0.51,0.746
		c0,0.353-0.353,0.627-1.412,1.098c0,2.432-0.038,7.766-0.038,9.648c0,6.352,0.077,12.51,0.234,16.824
		c-0.038,0.549-0.196,0.785-0.625,0.941c-0.353,0.118-1.727,0.235-2.591,0.235c-0.978,0-1.217-0.156-1.255-0.823v-3.137h-6.981
		v2.902c0,0.588-0.157,0.863-0.587,0.98c-0.315,0.118-1.57,0.236-2.472,0.236c-1.136,0-1.374-0.157-1.374-0.981
		c0.157-5.53,0.2-7.295,0.2-16.668c0-8.236-0.043-10.942-0.2-14.55c2.199,1.02,2.863,1.334,4.905,2.549H49.164z M42.378,316.266
		h6.981v-23.884h-6.981V316.266z"/>
	<path fill="#040000" d="M64.778,305.637c1.961-2.824,3.493-5.726,4.786-9.02c0.978-2.51,1.999-5.765,2.548-8.039
		c0.234-0.981,0.315-1.373,0.43-2.51c1.178,0.274,2.157,0.47,2.748,0.588c3.254,0.705,3.727,0.863,3.727,1.333
		c0,0.392-0.825,0.706-2.004,0.746c-1.646,4.039-2.706,6.118-4.824,9.373c0.119,0.039,0.157,0.039,0.238,0.039
		c0,0.039,0,0.039,1.685,0.353c1.021,0.196,1.374,0.353,1.374,0.667c0,0.353-0.315,0.549-1.412,0.902v8.432l0.157,12.354
		c-0.038,0.549-0.157,0.823-0.549,0.981c-0.434,0.196-1.412,0.314-2.706,0.314c-0.983,0-1.255-0.197-1.255-0.941
		c0.196-6.158,0.234-8.668,0.234-12.589v-7.49c-1.217,1.608-2.51,2.901-4.824,4.823L64.778,305.637z M80.348,291.01
		c-0.63,0-1.217,0.039-2.587,0.274l-0.238-1.412c1.608,0.236,2.314,0.315,2.944,0.315h14.511c1.332-1.452,1.723-1.922,2.94-3.374
		c1.842,1.529,2.433,2.001,4.237,3.609c0.153,0.117,0.234,0.235,0.234,0.353c0,0.117-0.157,0.235-0.353,0.235h-3.531v15.491
		c0,2.548,0.038,4.941,0.157,10.98c-0.038,1.922-0.468,2.863-1.646,3.569c-0.864,0.51-1.412,0.667-2.94,0.902
		c-0.787,0.118-0.983,0.118-1.217,0.118c-0.353,0-0.472-0.118-0.51-0.471c-0.081-0.666-0.234-1.098-0.43-1.451
		c-0.63-1.059-1.846-1.608-5.649-2.628l0.038-0.509c3.297,0.235,4.199,0.274,7.177,0.392c0.591,0,0.744-0.157,0.744-0.706V291.01
		H80.348z M77.643,312.776c0.119-5.452,0.157-9.648,0.157-12.589c0-2.354-0.038-3.216-0.157-5.217
		c1.88,0.902,2.429,1.176,4.195,2.236h4.667c0.825-1.02,1.059-1.334,1.923-2.314c1.412,0.942,1.804,1.217,3.097,2.158
		c0.353,0.314,0.472,0.509,0.472,0.744c0,0.197-0.077,0.353-0.353,0.51c-0.038,0.078-0.038,0.078-0.549,0.352
		c-0.157,0.079-0.196,0.079-0.391,0.236c-0.038,1.686-0.038,3.098-0.038,3.921c0,2.824,0.038,4.745,0.153,8.589
		c0,0.823-0.506,1.098-2.157,1.098c-1.761,0-1.961-0.078-1.961-0.823v-1.843h-4.977v2.784c0,0.353-0.081,0.549-0.238,0.667
		c-0.272,0.314-1.059,0.47-2.272,0.47c-1.374,0-1.57-0.117-1.57-0.902V312.776z M81.722,309.011H86.7v-10.982h-4.977V309.011z"/>
	<path fill="#040000" d="M118.28,293.363c1.059-1.334,1.412-1.726,2.472-2.981c1.608,1.294,2.119,1.726,3.646,3.137
		c0.157,0.157,0.277,0.392,0.277,0.432c0,0.118-0.157,0.235-0.277,0.235h-10.665c-0.744,0-1.298,0.079-2.119,0.235l-0.277-1.451
		c0.902,0.274,1.689,0.392,2.395,0.392H118.28z M118.28,288.265c1.021-1.216,1.374-1.569,2.391-2.667
		c1.57,1.177,2.08,1.57,3.65,2.863c0.157,0.157,0.196,0.274,0.196,0.353c0,0.157-0.196,0.274-0.434,0.274h-10.04
		c-0.391,0-0.978,0.079-1.608,0.197l-0.311-1.294c0.821,0.156,1.489,0.274,1.919,0.274H118.28z M118.204,298.344
		c1.017-1.176,1.332-1.529,2.391-2.667c1.451,1.216,1.88,1.569,3.293,2.902c0.081,0.118,0.157,0.274,0.157,0.353
		c0,0.118-0.196,0.235-0.43,0.235h-9.491c-0.434,0-0.864,0.039-1.489,0.235l-0.277-1.293c0.706,0.156,1.178,0.235,1.646,0.235
		H118.204z M118.046,303.482c0.978-1.099,0.978-1.099,2.353-2.628c1.489,1.176,1.961,1.569,3.45,2.902
		c0.157,0.156,0.196,0.235,0.196,0.314c0,0.156-0.196,0.235-0.468,0.235h-9.572c-0.315,0-0.902,0.117-1.37,0.235l-0.277-1.373
		c0.706,0.236,1.217,0.315,1.646,0.315H118.046z M119.025,308.853c0.825-0.941,1.098-1.216,1.923-2.117
		c1.174,0.941,1.527,1.255,2.667,2.196c0.272,0.235,0.391,0.432,0.391,0.588c0,0.274-0.196,0.471-1.059,1.059
		c0.038,7.844,0.038,7.844,0.119,9.687c0,0.432-0.119,0.588-0.434,0.706c-0.311,0.117-1.412,0.196-2.548,0.196
		c-0.668,0-0.821-0.117-0.821-0.667v-1.372h-2.629v1.646c-0.038,0.314-0.081,0.432-0.234,0.55c-0.277,0.196-1.178,0.314-2.238,0.314
		c-1.098,0-1.332-0.118-1.374-0.628c0.081-3.216,0.119-4.863,0.119-7.06c0-2.902-0.038-4.314-0.234-7.295
		c1.723,0.864,2.272,1.177,4.118,2.196H119.025z M116.634,318.305h2.629v-8.627h-2.629V318.305z M148.829,317.521
		c-1.255,0.47-1.88,1.255-2.663,3.412c-0.119,0.353-0.238,0.47-0.434,0.47c-0.315,0-1.57-0.627-2.94-1.49
		c-1.727-1.02-2.944-2.039-4.156-3.491c-3.178,1.804-4.514,2.393-11.061,4.98c-0.315,0.903-0.549,1.255-0.825,1.255
		c-0.353,0-0.51-0.431-1.804-4.902c1.531,0,1.846-0.039,3.961-0.274v-2.902c-1.804,0.785-2.782,1.099-5.53,1.764l-0.196-0.431
		c3.531-1.922,6.079-3.883,7.377-5.726h-2.786c-1.217,0-1.961,0.079-3.059,0.314l-0.277-1.451c1.255,0.235,2.08,0.314,3.335,0.314
		h1.961v-2.942h-1.885c-0.783,0-1.527,0.079-2.233,0.235l-0.277-1.451c1.178,0.274,1.885,0.392,2.51,0.392h1.885v-2.745h-2.195
		c-0.944,0-1.765,0.078-2.591,0.274l-0.353-1.373c1.178,0.196,1.885,0.274,2.825,0.274h2.314v-0.902
		c0-0.706-0.038-1.176-0.196-2.117c0.94,0.117,1.646,0.156,2.119,0.196c2.706,0.235,2.863,0.274,2.863,0.628
		c0,0.274-0.315,0.51-1.255,0.863v1.334h4.233v-0.549c0-0.509,0-0.706-0.157-2.354c1.059,0.079,1.804,0.157,2.353,0.197
		c2.161,0.196,2.51,0.274,2.51,0.588c0,0.039-0.115,0.274-0.115,0.314c-0.119,0.118-0.353,0.235-1.14,0.588v1.216h1.689
		c0.864-0.941,1.136-1.255,2.038-2.196c1.608,1.216,1.608,1.216,3.14,2.393c0.115,0.156,0.234,0.313,0.234,0.391
		c0,0.157-0.157,0.236-0.43,0.236h-6.67v2.745h0.983c0.744-0.746,1.451-1.49,2.119-2.196c1.293,1.019,1.685,1.334,2.94,2.431
		c0.081,0.118,0.157,0.235,0.157,0.353c0,0.117-0.196,0.235-0.43,0.235h-5.769v2.942h1.961c1.021-1.02,1.298-1.334,2.199-2.275
		c1.37,1.098,1.804,1.451,3.174,2.589c0.196,0.196,0.238,0.274,0.238,0.353c0,0.078-0.157,0.156-0.315,0.156h-12.001
		c0.94,1.687,1.646,2.589,2.901,3.609c1.178-1.099,2.314-2.354,3.14-3.53c3.841,1.922,4.275,2.157,4.275,2.51
		c0,0.196-0.315,0.392-0.668,0.392s-0.744-0.039-1.217-0.118c-1.765,0.784-2.629,1.059-4.433,1.529
		c2.314,1.373,4.08,1.843,8.627,2.471V317.521z M141.695,289.833c1.174-1.294,1.527-1.687,2.625-2.863
		c1.765,1.255,2.314,1.687,4.08,3.098c0.119,0.118,0.196,0.274,0.196,0.353c0,0.118-0.157,0.235-0.43,0.235h-21.1
		c-0.864,0-1.527,0.079-2.667,0.236l-0.234-1.373c0.94,0.196,2.076,0.314,2.901,0.314h6.156v-2.157c0-0.902,0-1.255-0.115-2.117
		c1.059,0.117,1.88,0.196,2.391,0.235c2.94,0.235,3.531,0.392,3.531,0.823c0,0.314-0.391,0.55-1.689,0.981v2.236H141.695z
		 M128.477,298.265c-0.038,0.235-0.081,0.353-0.234,0.432c-0.277,0.117-1.021,0.196-1.885,0.156c-0.157,0-0.272,0.039-0.353,0.039
		c-0.077,0-0.119,0-0.119,0c-0.391,0-0.625-0.196-0.625-0.628c0,0,0-0.079,0-0.118c0.038-0.98,0.119-3.803,0.119-4.941
		c0-0.196,0-0.274-0.043-1.098c-0.038-0.51-0.038-0.51-0.038-0.864c1.374,0.589,1.804,0.824,3.178,1.687h3.097
		c0.706-0.784,0.94-0.981,1.646-1.687c0.983,0.746,1.255,0.981,2.199,1.765c0.234,0.156,0.353,0.314,0.353,0.47
		c0,0.197-0.238,0.392-0.944,0.824c0,0.509,0,0.941,0,1.216c0,0.47,0,0.706,0.081,2.589c-0.038,0.235-0.081,0.314-0.238,0.391
		c-0.349,0.118-1.055,0.236-1.685,0.236c-1.059,0-1.293-0.118-1.293-0.628v-0.432h-3.216V298.265z M128.477,296.854h3.216v-3.099
		h-3.216V296.854z M132.319,317.011c2.982-0.391,4.824-0.705,6.003-0.98c-1.412-1.844-2.238-3.491-2.863-5.844h-0.081
		c-1.293,1.176-1.961,1.726-3.059,2.51V317.011z M133.263,305.599h4.233v-2.745h-4.233V305.599z M133.263,309.364h4.233v-2.942
		h-4.233V309.364z M139.615,298.147c-0.038,0.197-0.077,0.275-0.196,0.315c-0.234,0.117-1.136,0.196-1.923,0.196
		c-0.864,0-1.059-0.079-1.059-0.51c0.119-2.901,0.119-2.901,0.119-4c0-1.294-0.038-1.882-0.119-2.706
		c1.451,0.549,1.923,0.746,3.412,1.49h3.101c0.587-0.588,1.174-1.137,1.646-1.608c1.098,0.706,1.412,0.941,2.429,1.687
		c0.238,0.156,0.353,0.314,0.353,0.432c0,0.235-0.157,0.391-0.978,0.863c-0.038,1.176-0.038,1.176-0.038,1.216
		c0,0.235,0.038,0.902,0.077,1.922c0,0.156,0,0.392,0,0.705c-0.038,0.667-0.51,0.864-2.233,0.864c-0.864,0-1.021-0.079-1.059-0.51
		v-0.823h-3.531V298.147z M139.615,296.854h3.531v-3.099h-3.531V296.854z"/>
	<path fill="#040000" d="M174.152,308.599c0.63-0.823,0.825-1.098,1.451-1.882c0.94,0.902,1.217,1.216,2.08,2.157
		c0.077,0.118,0.157,0.236,0.157,0.314c0,0.157-0.157,0.236-0.434,0.236h-3.961v3.882h0.63c0.506-0.628,1.017-1.255,1.451-1.804
		c1.017,0.863,1.293,1.137,2.157,2.117c0.115,0.118,0.196,0.236,0.196,0.314c0,0.118-0.157,0.197-0.472,0.197h-3.961v4.196h0.668
		c0.625-0.902,0.821-1.176,1.489-1.999c1.059,0.98,1.178,1.098,2.314,2.196c1.608-1.569,2.391-2.549,3.335-4.118
		c-0.591,0.079-0.902,0.079-1.412,0.079c-1.059,0-1.255-0.118-1.255-0.667c0.077-6.354,0.115-6.902,0.115-9.099
		c0-8.354-0.038-10.04-0.153-12.275c1.804,0.863,2.31,1.176,4.037,2.117h0.549c0.472-1.764,0.587-2.706,0.787-5.099h-3.178
		c-0.787,0-1.412,0.079-2.119,0.235l-0.234-1.333c0.821,0.196,1.489,0.274,2.353,0.274h7.802c1.14-1.334,1.493-1.726,2.667-2.981
		c1.765,1.334,2.314,1.726,4.003,3.177c0.153,0.157,0.234,0.274,0.234,0.392s-0.234,0.235-0.51,0.235h-6.351
		c-0.353,0.51-0.353,0.51-0.983,1.452c-0.978,1.372-1.527,2.117-2.94,3.647h4.39c0.864-0.981,1.14-1.294,2.08-2.157
		c1.293,0.902,1.685,1.176,2.94,2.117c0.315,0.274,0.472,0.432,0.472,0.627c0,0.314-0.277,0.51-1.293,1.138c0,1.921,0,2.862,0,4.353
		c0,3.921,0.038,8.314,0.196,12.55c0,0.314-0.043,0.47-0.157,0.588c-0.277,0.314-1.14,0.47-2.548,0.47
		c-1.178,0-1.336-0.079-1.336-0.628v-0.706h-6.862v0.785c-0.038,0.47-0.234,0.588-0.983,0.667c4.275,2.078,4.628,2.275,4.628,2.666
		c0,0.314-0.315,0.432-1.098,0.432c-0.157,0-0.391,0-0.706-0.039c-2.119,1.49-3.135,2.079-5.216,3.019
		c-2.08,0.981-3.254,1.412-5.726,2.119l-0.157-0.392c1.765-1.176,2.433-1.687,3.961-3.019h-9.372v1.569
		c-0.038,0.705-0.43,0.863-2.276,0.863c-0.978,0-1.212-0.118-1.212-0.628c0,0,0-0.039,0-0.118c0.153-5.764,0.153-5.764,0.153-7.844
		v-4.235c-0.506,0.509-0.702,0.667-1.332,1.216l-0.077-0.079c-0.902,4.432-2.238,7.53-5.02,11.53l-0.396-0.235
		c1.298-3.568,1.846-5.922,2.276-9.922c0.353-3.412,0.587-8.745,0.587-14.471c0-2.707-0.038-3.844-0.196-6.354
		c1.999,0.902,2.591,1.176,4.433,2.196h7.453c0.859-0.902,1.136-1.137,1.999-1.999c1.255,0.902,1.646,1.176,2.82,2.078
		c0.238,0.156,0.353,0.314,0.353,0.47c0,0.314-0.196,0.471-1.098,0.981c0,2.275,0,2.589,0.043,4.471c0,0.746-0.51,0.941-2.314,0.941
		c-1.336,0-1.493-0.079-1.493-0.627v-0.471h-8.274c-0.157,4.589-0.43,7.217-1.021,10.629c1.531-2.824,2.906-6.746,3.335-9.57
		c0.94,0.274,1.765,0.471,2.238,0.588c1.761,0.432,2.272,0.627,2.272,0.902c0,0.314-0.353,0.432-1.57,0.628
		c-0.702,1.334-0.94,1.765-1.451,2.549h2.157c0.825-1.686,1.14-2.51,1.608-4.196c0.787,0.235,1.412,0.391,1.804,0.47
		c1.493,0.353,1.961,0.549,1.961,0.824c0,0.352-0.43,0.509-1.489,0.628c-0.391,0.313-0.706,0.588-0.902,0.744
		c-1.059,0.941-1.178,1.059-1.842,1.529h2.706c0.549-0.588,1.059-1.216,1.608-1.843c0.94,0.941,1.217,1.216,2.119,2.117
		c0.077,0.118,0.153,0.274,0.153,0.353c0,0.118-0.153,0.197-0.391,0.197h-4.156v3.568H174.152z M159.211,288.284
		c0.978,0.235,1.723,0.353,2.744,0.353h9.844c1.059-1.216,1.412-1.569,2.472-2.707c1.566,1.217,2.038,1.608,3.569,2.981
		c0.115,0.156,0.196,0.235,0.196,0.314c0,0.118-0.196,0.235-0.391,0.235h-15.689c-0.902,0-1.646,0.079-2.51,0.274L159.211,288.284z
		 M172.582,293.46h-8.236c0,2.314,0,3.02-0.038,4.197h8.274V293.46z M170.348,308.599v-3.568h-2.472v3.568H170.348z
		 M167.877,313.305h2.472v-3.882h-2.472V313.305z M170.348,314.129h-2.472v4.196h2.472V314.129z M189.407,295.382h-6.862v4.668
		h6.862V295.382z M182.545,300.873v4.902h6.862v-4.902H182.545z M182.545,306.599v5.49h6.862v-5.49H182.545z M186.506,314.638
		c4.156,0.784,5.764,1.294,7.253,2.314c0.825,0.549,1.217,1.216,1.217,2.196c0,1.49-1.017,3.059-1.999,3.059
		c-0.549,0-0.625-0.079-1.527-1.647c-1.102-1.922-3.101-4.079-5.101-5.569L186.506,314.638z"/>
	<path fill="#040000" d="M227.515,296.323c0.821-0.941,1.059-1.216,1.961-2.117c2.314,1.647,2.314,1.647,2.94,2.157
		c0.706-1.412,0.983-2.117,1.608-4.274h-23.1c0.038,0.314,0.038,0.588,0.038,0.705c0,1.805-0.272,3.099-0.902,4.236
		c-0.664,1.255-1.761,2.039-2.82,2.039c-1.178,0-2.157-1.293-2.157-2.901c0-0.902,0.153-1.177,1.293-1.882
		c2.51-1.569,3.293-2.942,3.374-5.609l0.587-0.078c0.353,1.216,0.43,1.647,0.549,2.666h9.491v-2.51c0-0.941-0.038-1.529-0.196-2.745
		c5.607,0.432,6.432,0.588,6.432,1.176c0,0.471-0.549,0.746-1.727,0.981v3.098h8.866c1.136-1.216,1.136-1.216,2.391-2.549
		c1.999,1.452,2.629,1.922,4.667,3.413c0.315,0.352,0.391,0.431,0.391,0.588c0,0.314-0.272,0.509-0.706,0.627
		c-0.157,0-0.157,0-1.332,0.078c-0.353,0-0.391,0-0.864,0.079c-1.885,1.373-3.569,2.471-5.216,3.372l0.43,0.353
		c0.315,0.274,0.434,0.432,0.434,0.588c0,0.471-0.396,0.55-2.238,0.667c-2.233,2.549-3.374,3.648-5.841,5.452
		c4.156,1.608,9.334,2.431,15.451,2.431v0.471c-1.255,0.549-1.765,0.981-2.353,2.117c-0.277,0.549-0.396,0.863-0.591,1.569
		c-0.115,0.392-0.272,0.549-0.587,0.549c-0.51,0-2.629-0.549-4.982-1.294c0.549,0.471,0.668,0.55,1.336,1.138
		c0.353,0.274,0.468,0.431,0.468,0.667c0,0.313-0.353,0.549-1.174,0.823c0,1.098,0,1.804,0,2.392c0,2.196,0.038,3.726,0.077,6.079
		c0.038,0.118,0.038,0.235,0.038,0.314c0,0.784-0.587,0.941-3.174,0.941c-0.902,0-1.14-0.197-1.14-0.941v-1.451h-13.256v1.333
		c-0.077,0.902-0.549,1.138-2.548,1.138c-1.489,0-1.842-0.157-1.842-0.903c0-0.038,0-0.117,0-0.156
		c0.077-1.726,0.196-5.059,0.196-6.824v-3.765c-1.999,0.588-3.765,0.941-6.785,1.372l-0.157-0.391
		c6.432-2.158,11.376-4.668,16.081-8.118c-1.765-1.647-2.587-2.589-3.646-4.275c-3.688,3.451-6.471,5.138-11.256,6.824l-0.196-0.314
		c3.254-2.431,5.254-4.314,7.53-7.098c1.919-2.314,2.863-3.883,3.765-6.079c2.119,0.432,3.135,0.628,4.195,0.903
		c0.315,0.078,0.549,0.117,0.668,0.117c0.706,0.157,1.021,0.353,1.021,0.627c0,0.432-0.63,0.667-2.08,0.863
		c-0.51,0.667-0.706,0.903-1.059,1.334H227.515z M228.966,310.481c0.821-0.746,0.821-0.746,1.608-1.451
		c-2.706-0.981-4.824-2.04-6.981-3.53c-2.629,1.647-4.982,2.784-8.551,4c0.434,0.353,0.668,0.509,1.255,0.981H228.966z
		 M215.982,318.913h13.256v-7.608h-13.256V318.913z M219.198,297.148c-0.587,0.666-0.821,0.902-1.37,1.451
		c1.332,1.49,2.548,2.431,4.586,3.686c1.923-1.569,3.254-3.019,4.862-5.137H219.198z"/>
	<path fill="#040000" d="M266.936,289.382h-8.512c-0.902,0-1.88,0.079-2.706,0.196l-0.234-1.334c1.178,0.236,1.999,0.314,2.94,0.314
		h18.161c1.136-1.294,1.489-1.686,2.744-2.941c1.923,1.216,2.548,1.646,4.471,3.098c0.157,0.156,0.234,0.274,0.234,0.353
		c0,0.196-0.234,0.314-0.468,0.314h-12.592v3.137h10.121c0.821-0.941,1.098-1.255,1.961-2.157c1.88,1.293,2.429,1.686,4.118,3.019
		c0.353,0.274,0.468,0.471,0.468,0.667c0,0.47-0.587,0.667-2.114,0.706c-2.706,2.274-2.982,2.51-4.824,3.843l-0.353-0.156
		l0.272-0.981h-6.785c-0.549,0-0.902,0.039-1.608,0.157l-0.196-1.217c0.706,0.157,1.297,0.236,1.804,0.236h2.238
		c0.864-1.059,0.864-1.059,1.842-2.196c1.336,1.058,1.608,1.255,2.863,2.431c0.472-1.687,0.549-2.117,0.825-3.53h-10.631v2.667
		c0,1.843,0,2.901,0.081,6.313c-0.038,0.785-0.549,0.981-2.744,0.981c-1.178,0-1.412-0.117-1.493-0.666
		c0.081-1.53,0.119-3.765,0.119-6.237v-3.059h-10.469c0,0.471,0.038,0.941,0.038,1.412c0,1.843-0.238,3.019-0.744,4
		c-0.472,0.863-1.412,1.451-2.357,1.451c-1.136,0-1.88-1.098-1.88-2.824c0-0.863,0.196-1.176,1.059-1.646
		c0.821-0.432,1.646-1.255,2.157-2.04c0.472-0.823,0.668-1.49,0.821-2.902l0.396-0.039c0.234,0.824,0.311,1.099,0.391,1.765h10.589
		V289.382z M255.012,305.383c-1.408,0-2.31,0.078-3.059,0.196l-0.234-1.334c0.983,0.236,1.923,0.314,3.374,0.314h25.372
		c0.902-0.981,1.765-1.999,2.667-3.019c1.804,1.334,2.395,1.764,4.199,3.137c0.157,0.156,0.234,0.274,0.234,0.392
		c0,0.156-0.234,0.314-0.472,0.314h-15.294c-0.43,0.314-0.43,0.314-1.136,0.863c-0.983,0.785-1.999,1.49-3.688,2.549h11.767
		c0.864-0.981,1.174-1.255,2.076-2.236c1.412,0.941,1.846,1.255,3.14,2.236c0.353,0.274,0.468,0.47,0.468,0.667
		c0,0.314-0.196,0.47-1.212,1.098v4.079c0,0.471,0,0.667,0.038,4.315c-0.038,1.764-0.706,2.627-2.472,3.098
		c-0.549,0.117-1.608,0.274-2.119,0.274c-0.43,0-0.468-0.079-0.587-0.863c-0.234-1.687-1.021-2.393-3.059-2.902l0.038-0.392
		c2.119,0.118,2.629,0.157,3.097,0.157c0.119,0,0.315,0,0.51,0c0.353-0.039,0.434-0.157,0.434-0.589v-8.118h-4.314v4.118
		c0,2.275,0.038,4.471,0.077,7.137c-0.038,0.432-0.157,0.589-0.549,0.746c-0.272,0.079-1.489,0.196-2.391,0.196
		c-0.825,0-1.098-0.156-1.14-0.705c0.081-2.079,0.081-3.883,0.081-7.02v-4.471h-3.65v4.51c0,1.725,0.043,4.588,0.081,6.667
		c-0.038,0.784-0.51,0.979-2.825,1.019c-0.119,0-0.157,0-0.234,0c-0.081,0-0.157,0-0.157,0c-0.587,0-0.864-0.196-0.902-0.705
		c0.038-2.314,0.077-5.334,0.077-6.785v-4.706h-3.765v11.883c0,0.039,0,0.118,0,0.118c0,0.314-0.077,0.471-0.272,0.588
		c-0.391,0.235-1.336,0.392-2.353,0.392c-1.298,0-1.646-0.197-1.646-0.824c0.115-1.804,0.196-5.255,0.196-8.745
		c0-2.471-0.081-4.588-0.238-6.471c2.157,0.863,2.825,1.137,4.905,2.236h5.096c0.51-1.137,0.825-2.117,1.098-3.412H255.012z
		 M255.956,300.598c0.744,0.157,1.255,0.196,1.961,0.196h3.059c0.859-0.941,1.174-1.216,2.076-2.157
		c1.255,0.981,1.608,1.294,2.786,2.431c0.157,0.157,0.196,0.236,0.196,0.315c0,0.156-0.196,0.235-0.434,0.235h-7.645
		c-0.668,0-1.059,0.039-1.765,0.156L255.956,300.598z M257.445,296.402c0.744,0.157,1.293,0.236,1.923,0.236h1.685
		c0.825-0.941,1.098-1.255,1.961-2.157c1.217,0.98,1.57,1.293,2.786,2.392c0.077,0.118,0.153,0.274,0.153,0.353
		c0,0.117-0.196,0.235-0.43,0.235h-6.156c-0.668,0-1.059,0.039-1.727,0.157L257.445,296.402z M272.032,300.598
		c0.706,0.118,1.255,0.196,1.961,0.196h3.101c0.821-1.019,1.098-1.333,1.999-2.313c1.332,1.058,1.765,1.372,3.059,2.549
		c0.157,0.156,0.196,0.235,0.196,0.353c0,0.117-0.157,0.235-0.434,0.235h-7.921c-0.625,0-1.017,0.039-1.765,0.156L272.032,300.598z"
		/>
	<path fill="#040000" d="M325.024,308.345c-1.57,3.333-2.314,4.549-3.961,6.392c3.293,0.706,5.96,1.569,7.096,2.275
		c1.178,0.706,1.846,1.961,1.846,3.412c0,1.176-0.472,2.039-1.14,2.039c-0.353,0-0.821-0.235-1.765-0.902
		c-2.625-1.882-4.901-3.176-8.351-4.706c-2.119,1.647-4.314,2.746-7.53,3.726c-3.608,1.138-6.981,1.608-12.745,1.882l-0.081-0.509
		c5.373-1.02,8.355-1.961,11.729-3.607c1.88-0.903,3.369-1.843,4.824-3.02c-2.276-0.744-3.65-1.176-6.122-1.725l-1.098,1.451
		c-0.391,0.509-0.706,0.667-1.37,0.667c-0.944,0-2.706-0.274-3.178-0.509c-0.196-0.079-0.277-0.197-0.277-0.353
		c0-0.118,0.081-0.274,0.238-0.471c2.272-2.745,3.174-3.921,4.586-6.039h-6.743c-0.983,0-1.651,0.078-2.667,0.235l-0.277-1.412
		c1.059,0.235,1.999,0.353,2.944,0.353h7.292c1.689-2.666,2.042-3.333,2.395-4.471c5.53,0.981,5.53,0.981,5.53,1.373
		c0,0.314-0.472,0.549-1.727,0.785c-0.706,1.176-0.864,1.451-1.412,2.313h13.609c1.332-1.334,1.727-1.764,3.02-2.941
		c1.88,1.372,2.472,1.764,4.233,3.215c0.119,0.157,0.2,0.235,0.2,0.353c0,0.118-0.157,0.197-0.396,0.197H325.024z M321.769,294.225
		h4.156c0.902-0.98,1.174-1.255,2.076-2.195c1.451,0.902,1.885,1.216,3.216,2.195c0.353,0.315,0.51,0.471,0.51,0.667
		c0,0.314-0.315,0.588-1.293,1.138c0,2.471,0,2.471,0.119,7.372c0,0.392-0.081,0.55-0.277,0.667
		c-0.315,0.157-1.412,0.274-2.706,0.274c-1.059,0-1.255-0.117-1.293-0.627v-0.941h-21.1v0.863c0,0.667-0.43,0.824-2.586,0.824
		c-1.255,0-1.57-0.118-1.57-0.667c0,0,0-0.079,0-0.118c0.077-2.039,0.077-2.784,0.077-4.98c0-2.589-0.038-4.274-0.115-6.628
		c2.076,0.824,2.706,1.099,4.743,2.157h3.846v-4.784h-8.159c-0.94,0-1.765,0.079-2.744,0.235l-0.238-1.411
		c1.059,0.235,1.923,0.352,2.982,0.352h24.393c1.255-1.333,1.646-1.686,2.863-2.862c2.119,1.293,2.744,1.725,4.705,3.176
		c0.157,0.157,0.196,0.236,0.196,0.314c0,0.118-0.115,0.197-0.311,0.197h-11.49V294.225z M305.178,295.049v6.902h4.395v-6.902
		H305.178z M312.512,308.345c-0.864,1.372-1.842,2.784-3.178,4.588c6.003,0.744,6.003,0.744,7.177,0.941
		c1.57-1.647,2.353-2.824,3.688-5.529H312.512z M313.491,289.441v4.784h4.318v-4.784H313.491z M313.491,301.952h4.318v-6.902h-4.318
		V301.952z M321.769,301.952h4.509v-6.902h-4.509V301.952z"/>
	<path fill="#040000" d="M343.816,306.403c1.961-3.255,3.488-6.59,5.216-11.57c1.412-3.921,1.999-6.352,2.233-8.862
		c6.394,1.333,6.432,1.333,6.432,1.882c0,0.353-0.43,0.588-1.727,0.823c-1.723,4.157-2.978,6.707-4.82,9.491
		c2.625,0.391,3.097,0.509,3.097,0.941c0,0.314-0.391,0.549-1.336,0.863v9.805l0.043,11.334c0,0.549-0.157,0.744-0.63,0.902
		c-0.43,0.117-1.608,0.235-2.51,0.235c-1.059,0-1.293-0.156-1.293-0.981c0.077-2.313,0.077-2.313,0.234-10.824v-8.824
		c-1.57,2.078-2.548,3.177-4.548,5.097L343.816,306.403z M354.834,317.07c1.765-3.765,2.629-6.237,3.45-9.765
		c0.63-2.589,0.825-3.962,0.902-6.237c5.845,1.217,5.964,1.255,5.964,1.687c0,0.314-0.434,0.51-1.727,0.823
		c-1.178,3.569-1.923,5.217-3.216,7.452c-1.451,2.471-2.667,4-4.982,6.314L354.834,317.07z M370.481,311.226
		c0,0.432,0,1.922,0.043,3.962c0,0.549,0.038,1.529,0.038,2.588c0,1.843-0.315,2.549-1.374,3.177c-0.978,0.627-2.51,1.02-3.922,1.02
		c-0.549,0-0.587-0.039-0.706-0.863c-0.077-0.941-0.549-1.647-1.412-2.119c-0.702-0.431-1.608-0.744-4.075-1.451l0.038-0.509
		c3.999,0.314,4.156,0.314,6.351,0.391c0.63-0.039,0.787-0.156,0.787-0.705v-21.609h-4.314c-1.804,2.901-3.65,5.02-6.709,7.53
		l-0.311-0.236c2.157-3.804,3.293-6.51,4.429-10.275c0.787-2.589,1.059-3.921,1.217-6.079c1.217,0.236,2.391,0.471,2.982,0.588
		c3.174,0.589,3.841,0.824,3.841,1.217c0,0.391-0.587,0.628-2.08,0.863c-1.174,2.589-1.761,3.686-2.859,5.569h12.154
		c0.825-1.098,1.098-1.451,1.961-2.51c1.999,1.452,2.629,1.922,4.471,3.53c0.238,0.274,0.315,0.432,0.315,0.627
		c0,0.509-0.51,0.667-2.629,0.823c-2.272,1.843-3.059,2.393-5.177,3.609l-0.272-0.274c0.978-2.079,1.255-2.824,1.842-4.981h-4.628
		V311.226z M372.638,301.54c3.374,2.784,5.53,5.059,6.824,7.177c0.825,1.373,1.297,2.667,1.297,3.569
		c0,0.823-0.434,2.078-1.021,3.059c-0.51,0.784-1.293,1.334-1.999,1.334c-0.277,0-0.549-0.157-0.706-0.353
		c-0.196-0.314-0.234-0.432-0.434-1.726c-0.272-1.96-1.055-5.216-1.685-7.019c-0.587-1.765-1.174-3.098-2.586-5.805L372.638,301.54z
		"/>
	<path fill="#040000" d="M400.902,293.951c0.94-0.981,1.217-1.255,2.195-2.274c1.412,0.941,1.804,1.216,3.101,2.274
		c0.311,0.274,0.43,0.432,0.43,0.628c0,0.274-0.234,0.471-1.255,1.059v4.667c0,10.432,0,13.491,0.077,17.099
		c0,0.863-0.506,1.058-2.706,1.058c-1.293,0-1.451-0.078-1.489-0.705v-2.119h-5.45v2.981c0,0.941-0.396,1.098-2.71,1.098
		c-1.37,0-1.604-0.117-1.604-0.784c0.196-7.099,0.234-8.903,0.234-13.726c0-6.158-0.081-10.511-0.234-13.609
		c1.999,0.902,2.586,1.216,4.352,2.353h0.272c0.706-2.941,0.983-5.097,0.983-7.686c1.217,0.274,2.157,0.47,2.782,0.588
		c2.552,0.509,3.335,0.823,3.335,1.255c0,0.392-0.472,0.588-1.842,0.785c-1.961,2.823-2.629,3.726-3.807,5.058H400.902z
		 M401.255,303.637v-8.862h-5.45v8.862H401.255z M395.806,304.462v10.353h5.45v-10.353H395.806z M420.471,293.951
		c1.098-1.137,1.451-1.49,2.51-2.51c1.451,1.099,1.885,1.412,3.178,2.51c0.353,0.314,0.51,0.55,0.51,0.746
		c0,0.353-0.277,0.549-1.451,1.099c-0.238,9.02-0.472,12.588-1.14,17.255c-0.821,5.844-1.842,7.805-4.471,8.55
		c-0.664,0.197-2.195,0.432-2.782,0.432c-0.434,0-0.549-0.157-0.549-0.706c-0.119-2.157-1.646-3.216-6.16-4.196l0.081-0.51
		c5.02,0.353,5.292,0.353,7.491,0.353c0.94,0,1.174-0.235,1.527-1.49c0.434-1.647,1.021-5.608,1.217-8.628
		c0.272-3.726,0.43-7.294,0.43-12.078h-8.432c-1.961,3.765-3.841,6.352-6.547,8.98l-0.391-0.235
		c2.587-4.941,4.667-12.393,4.824-17.334c5.173,1.099,6.39,1.452,6.39,1.961c0,0.392-0.391,0.549-1.88,0.863
		c-0.706,2.196-1.098,3.177-1.961,4.941H420.471z M410.393,299.677c4.901,2.745,7.177,5.02,7.177,7.137
		c0,1.805-1.412,3.609-2.786,3.609c-0.783,0-1.055-0.392-1.332-1.882c-0.587-3.137-1.489-5.53-3.293-8.589L410.393,299.677z"/>
	<path fill="#040000" d="M441.931,316.718c0,0.549-0.115,0.744-0.468,0.902c-0.353,0.117-1.336,0.235-2.238,0.235
		c-1.37,0-1.566-0.118-1.566-0.784c0.157-5.647,0.196-11.06,0.196-18.903c0-4-0.038-6.549-0.238-10.707
		c2.119,0.981,2.71,1.334,4.628,2.471h3.14c0.864-1.02,1.136-1.372,2.076-2.392c1.336,1.02,1.765,1.333,3.059,2.392
		c0.353,0.314,0.51,0.51,0.51,0.667c0,0.314-0.391,0.667-1.37,1.137v10.667c0,4.706,0,4.706,0.115,13.06
		c0,0.353-0.038,0.549-0.157,0.667c-0.272,0.314-1.174,0.47-2.587,0.47c-1.255,0-1.412-0.079-1.451-0.746v-2.392h-3.65V316.718z
		 M445.581,290.755h-3.65v10.236h3.65V290.755z M441.931,301.814v10.825h3.65v-10.825H441.931z M467.817,305.07h0.668
		c0.821-1.099,1.098-1.451,1.919-2.51c1.374,1.176,1.765,1.569,2.944,2.745c0.157,0.157,0.196,0.274,0.196,0.353
		c0,0.156-0.157,0.235-0.434,0.235h-5.292v5.844c0,0.744,0.038,2.588,0.077,5.529c-0.038,2.157-0.311,2.98-1.293,3.686
		c-0.864,0.628-1.646,0.864-3.254,1.059c-0.587,0.079-0.902,0.117-1.136,0.117c-0.434,0-0.549-0.117-0.63-0.705
		c-0.391-2.001-1.57-2.707-6.079-3.569v-0.588c3.412,0.235,4.471,0.274,7.215,0.353c0.63-0.039,0.787-0.196,0.787-0.706v-11.02
		h-10.512c-0.978,0-1.451,0.039-2.276,0.274l-0.311-1.451c0.94,0.235,1.723,0.353,2.625,0.353h10.474v-5.138H452.72
		c-0.864,0-1.57,0.079-2.276,0.274l-0.277-1.411c0.864,0.235,1.608,0.314,2.552,0.314h5.135v-6.118h-4.628
		c-0.902,0-1.489,0.079-2.233,0.274l-0.315-1.451c0.902,0.274,1.57,0.353,2.591,0.353h4.586V289.5c0-0.588,0-0.705-0.196-3.412
		c5.883,0.628,6.198,0.667,6.198,1.217c0,0.352-0.391,0.549-1.689,0.98v3.883h3.178c1.098-1.412,1.451-1.843,2.591-3.177
		c1.761,1.412,2.31,1.882,3.918,3.412c0.157,0.157,0.238,0.274,0.238,0.353c0,0.157-0.157,0.235-0.391,0.235h-9.533v6.118h4.314
		c1.14-1.334,1.493-1.764,2.71-3.098c1.842,1.372,2.391,1.843,4.075,3.333c0.157,0.157,0.238,0.274,0.238,0.353
		c0,0.157-0.2,0.235-0.472,0.235h-5.216V305.07z M452.877,307.148c3.016,1.059,3.841,1.452,5.216,2.354
		c1.293,0.863,1.88,1.686,1.88,2.627c0,1.647-1.332,3.334-2.629,3.334c-0.587,0-0.859-0.314-1.136-1.334
		c-0.234-0.863-0.978-2.667-1.489-3.647c-0.549-1.059-1.059-1.765-2.157-3.02L452.877,307.148z"/>
	<path fill="#040000" d="M483.158,306.403c2.195-3.961,3.335-6.549,4.667-10.589c1.332-4.157,2.038-7.255,2.119-9.726
		c5.373,0.981,6.037,1.176,6.037,1.726c0,0.352-0.349,0.509-1.723,0.94c-1.451,4.471-2.51,6.864-4.275,9.609
		c1.842,0.314,1.961,0.353,2.195,0.431c0.315,0.118,0.472,0.275,0.472,0.471c0,0.274-0.277,0.471-1.217,0.823v14.511
		c0,1.764,0,2.157,0.038,6.472c-0.038,0.352-0.115,0.549-0.272,0.666c-0.315,0.236-1.374,0.392-2.667,0.392
		c-0.983,0-1.255-0.156-1.255-0.823c0.157-5.334,0.234-8.707,0.234-11.648v-7.608c-1.57,2.196-2.157,2.863-3.961,4.667
		L483.158,306.403z M497.788,304.677c0,3.882,0,6.981,0.077,11.725c0,0.471-0.077,0.627-0.277,0.785
		c-0.272,0.196-1.293,0.353-2.391,0.353c-0.978,0-1.217-0.157-1.293-0.746c0.077-7.569,0.157-13.726,0.157-18.393
		c0-2.119-0.038-3.726-0.196-5.883c1.017,0.079,1.842,0.157,2.353,0.197c2.233,0.196,2.978,0.392,2.978,0.823
		c0,0.314-0.353,0.51-1.37,0.902c-0.038,1.294-0.038,2.314-0.038,2.707c0,0.353,0,0.941,0,2.117c0,0.235,0,1.137,0,2.628V304.677z
		 M509.708,309.461c-0.625,3.02-1.489,4.864-3.254,6.825c-2.629,2.902-5.649,4.353-11.843,5.687l-0.196-0.432
		c5.096-2.353,7.449-4.157,9.334-7.137c0.978-1.569,1.489-2.824,1.961-4.942h-4.156c-0.706,0-1.298,0.039-2.552,0.236l-0.234-1.373
		c1.021,0.235,1.804,0.314,2.825,0.314h4.275c0.272-1.961,0.353-2.824,0.391-6.079h-2.314c-1.217,1.765-2.863,3.491-5.139,5.295
		l-0.272-0.275c1.961-3.568,3.02-6.587,3.684-10.745c4.59,1.137,5.492,1.451,5.492,1.882c0,0.314-0.391,0.47-1.57,0.627
		c-0.744,1.255-1.021,1.647-1.608,2.392h8.236c1.098-1.294,1.412-1.687,2.51-2.902c1.804,1.334,2.314,1.765,3.846,3.177
		c0.115,0.157,0.196,0.236,0.196,0.314c0,0.157-0.196,0.235-0.51,0.235h-8.47c-0.081,3.177-0.2,4.392-0.472,6.079h3.803
		c1.098-1.334,1.412-1.725,2.548-2.98c1.727,1.372,2.238,1.804,3.727,3.215c0.196,0.157,0.277,0.275,0.277,0.392
		c0,0.118-0.157,0.196-0.434,0.196h-9.491c0.864,1.882,1.298,2.432,2.706,3.727c2.157,1.921,4.237,2.824,8.002,3.568l-0.038,0.392
		c-1.336,0.706-2.042,1.764-2.667,3.647c-0.157,0.55-0.234,0.628-0.472,0.628c-0.549,0-2.157-1.176-3.412-2.431
		c-2.467-2.589-4.037-5.765-4.667-9.53H509.708z M498.141,295.187c1.098,0.196,2.038,0.314,2.94,0.314h8.627
		c0.43-2.51,0.549-3.412,0.825-5.961h-7.925c-0.859,0-1.489,0.039-2.625,0.235l-0.315-1.372c1.098,0.196,2.038,0.314,2.94,0.314
		h7.649c1.059-1.059,1.059-1.059,2.157-2.119c1.412,0.941,1.804,1.255,3.02,2.196c0.43,0.353,0.549,0.51,0.549,0.706
		c0,0.314-0.119,0.392-1.412,1.099c-0.43,2.784-0.668,4.431-0.745,4.902h0.978c0.983-1.216,1.297-1.608,2.276-2.784
		c1.489,1.255,1.923,1.647,3.297,2.941c0.153,0.197,0.234,0.315,0.234,0.432c0,0.157-0.157,0.235-0.472,0.235H501.08
		c-0.864,0-1.451,0.039-2.629,0.236L498.141,295.187z"/>
	<path fill="#040000" d="M536.651,308.912c2.119-0.979,3.331-2.313,3.331-3.607c0-0.274-0.115-0.588-0.272-0.746
		c-0.157-0.156-0.157-0.156-1.136-0.431c-1.297-0.353-2.119-1.412-2.119-2.784c0-1.765,1.412-3.099,3.293-3.099
		c2.119,0,3.531,1.608,3.531,4.04c0,3.333-2.276,6.314-5.922,7.686L536.651,308.912z"/>
	<path fill="#040000" d="M18.36,359.156c1.961-3.254,3.488-6.588,5.216-11.569c1.412-3.921,1.999-6.352,2.233-8.862
		c6.394,1.333,6.432,1.333,6.432,1.882c0,0.352-0.43,0.588-1.727,0.823c-1.723,4.157-2.978,6.707-4.82,9.491
		c2.625,0.392,3.097,0.509,3.097,0.941c0,0.314-0.391,0.549-1.336,0.863v9.805l0.043,11.334c0,0.549-0.157,0.744-0.63,0.902
		c-0.43,0.117-1.608,0.235-2.51,0.235c-1.059,0-1.293-0.157-1.293-0.981c0.077-2.314,0.077-2.314,0.234-10.824v-8.824
		c-1.57,2.078-2.548,3.177-4.548,5.099L18.36,359.156z M29.378,369.823c1.765-3.765,2.629-6.235,3.45-9.764
		c0.63-2.589,0.825-3.962,0.902-6.235c5.845,1.216,5.964,1.255,5.964,1.686c0,0.314-0.434,0.509-1.727,0.824
		c-1.178,3.568-1.923,5.216-3.216,7.451c-1.451,2.471-2.667,4-4.982,6.314L29.378,369.823z M45.024,363.98
		c0,0.432,0,1.922,0.043,3.961c0,0.55,0.038,1.53,0.038,2.589c0,1.843-0.315,2.549-1.374,3.177c-0.978,0.627-2.51,1.02-3.922,1.02
		c-0.549,0-0.587-0.039-0.706-0.863c-0.077-0.941-0.549-1.647-1.412-2.119c-0.702-0.431-1.608-0.744-4.075-1.451l0.038-0.509
		c3.999,0.314,4.156,0.314,6.351,0.391c0.63-0.038,0.787-0.156,0.787-0.705v-21.61h-4.314c-1.804,2.902-3.65,5.02-6.709,7.53
		l-0.311-0.235c2.157-3.804,3.293-6.51,4.429-10.275c0.787-2.589,1.059-3.922,1.217-6.079c1.217,0.236,2.391,0.471,2.982,0.589
		c3.174,0.588,3.841,0.823,3.841,1.216c0,0.391-0.587,0.628-2.08,0.863c-1.174,2.589-1.761,3.686-2.859,5.569h12.154
		c0.825-1.098,1.098-1.451,1.961-2.51c1.999,1.451,2.629,1.922,4.471,3.53c0.238,0.274,0.315,0.431,0.315,0.627
		c0,0.509-0.51,0.667-2.629,0.823c-2.272,1.843-3.059,2.393-5.177,3.609l-0.272-0.274c0.978-2.079,1.255-2.824,1.842-4.982h-4.628
		V363.98z M47.181,354.293c3.374,2.784,5.53,5.059,6.824,7.177c0.825,1.373,1.298,2.667,1.298,3.569
		c0,0.823-0.434,2.078-1.021,3.059c-0.51,0.785-1.293,1.334-1.999,1.334c-0.277,0-0.549-0.157-0.706-0.353
		c-0.196-0.314-0.234-0.432-0.434-1.726c-0.272-1.96-1.055-5.216-1.685-7.019c-0.587-1.765-1.174-3.098-2.587-5.805L47.181,354.293z
		"/>
	<path fill="#040000" d="M65.077,371.922c1.332-2.51,1.999-4.079,2.625-6.314c0.472-1.726,0.825-3.609,0.983-5.255
		c4.982,1.334,5.058,1.334,5.058,1.843c0,0.314-0.157,0.392-1.098,0.627c-0.157,0.314-0.157,0.314-0.63,1.176
		c-1.527,3.059-3.369,5.373-6.547,8.236L65.077,371.922z M80.566,345.372c1.021-1.294,1.374-1.687,2.433-2.902
		c1.646,1.333,2.157,1.764,3.841,3.254c0.119,0.118,0.157,0.197,0.157,0.275c0,0.117-0.119,0.196-0.315,0.196H69.663
		c-0.864,0-2.314,0.117-3.331,0.274l-0.277-1.373c1.255,0.197,2.314,0.275,3.607,0.275h4.156v-3.177
		c0-1.177-0.038-1.922-0.153-3.137c1.255,0.117,2.195,0.196,2.782,0.235c2.276,0.196,3.216,0.47,3.216,0.981
		c0,0.314-0.234,0.47-1.489,1.019v4.08H80.566z M72.33,357.803v0.667c-0.038,0.353-0.157,0.509-0.549,0.627
		c-0.353,0.079-1.608,0.196-2.548,0.196c-0.783,0-1.021-0.117-1.059-0.667c0.119-2.353,0.157-3.177,0.157-6.275
		c0-2.313-0.038-3.215-0.157-4.627c1.999,0.785,2.587,1.059,4.628,2.117h6.39c0.787-0.941,1.059-1.216,1.923-2.117
		c1.374,0.981,1.804,1.334,3.216,2.392c0.157,0.157,0.196,0.197,0.196,0.353c0,0.118-0.038,0.235-0.115,0.314
		c-0.081,0.079-0.277,0.197-0.472,0.353c-0.157,0.079-0.353,0.196-0.587,0.353v0.47c0,0.942,0,1.805,0,2.628
		c0.038,2.117,0.038,2.117,0.077,2.471c0,0.353,0,0.432,0,0.864c-0.038,0.47-0.119,0.627-0.51,0.744
		c-0.391,0.118-1.685,0.235-2.548,0.235c-0.902,0-1.021-0.078-1.059-0.509v-0.588h-1.136v10.118c0,0.509,0,0.509,0.038,2.117
		c0,0.117,0,0.274,0,0.392c0,0.156,0,0.274,0,0.509c-0.119,1.373-0.51,2.078-1.412,2.589c-0.902,0.47-2.51,0.941-3.331,0.941
		c-0.472,0-0.553-0.118-0.63-0.785c-0.119-0.941-0.587-1.922-1.178-2.313c-0.506-0.432-0.902-0.589-2.548-1.059v-0.509
		c2.901,0.274,2.901,0.274,4.552,0.274c0.353,0,0.468-0.157,0.468-0.667v-11.608H72.33z M72.33,356.979h6.981v-6.313H72.33V356.979z
		 M92.605,351.175c-0.157,1.176-0.157,1.334-0.353,2.354c0.744,0.078,1.961,0.274,3.101,0.509c1.055,0.235,1.408,0.392,1.408,0.746
		c0,0.352-0.353,0.549-1.408,0.823v13.687c0,0.824,0.115,0.902,1.255,0.902c1.255,0,1.566-0.117,1.842-0.627
		c0.43-1.019,1.412-4.235,2.157-7.372l0.391,0.039l-0.119,6.589c0,0.509,0.081,0.628,0.825,0.981
		c0.706,0.352,1.059,0.902,1.059,1.646c0,1.216-0.783,1.922-2.353,2.236c-0.63,0.118-3.178,0.197-5.492,0.197
		c-2.587,0-3.569-0.667-3.569-2.472l0.238-14.588c-0.864,3.686-1.923,6.471-3.335,8.903c-2.157,3.726-4.509,5.922-9.648,8.941
		l-0.353-0.431c2.944-2.667,4.471-4.51,6.041-7.334c2.353-4.197,3.727-9.217,4.314-15.726h-1.255c-0.706,0-1.293,0.039-2.391,0.156
		l-0.238-1.216c1.14,0.157,1.961,0.236,2.629,0.236h1.332c0.196-2.471,0.353-5.452,0.353-7.099c0-1.646-0.077-3.216-0.196-4.079
		c5.101,0.432,5.922,0.588,5.922,1.138c0,0.314-0.077,0.391-1.566,1.137c-0.238,6.235-0.277,6.902-0.472,8.903h3.059
		c0.902-1.177,1.178-1.491,1.961-2.354c-0.94-0.079-1.178-0.353-1.412-1.372c-0.668-2.942-0.902-3.609-1.999-5.099l0.272-0.314
		c3.807,1.411,5.373,2.627,5.373,4.118c0,1.019-0.468,1.804-1.451,2.392c1.999,1.687,1.999,1.687,3.454,2.98
		c0.115,0.079,0.153,0.197,0.153,0.236c0,0.156-0.153,0.235-0.391,0.235H92.605z M78.763,360.627
		c3.961,1.882,5.139,2.902,5.139,4.392c0,1.451-1.14,2.824-2.395,2.824c-0.549,0-0.821-0.392-0.94-1.334
		c-0.272-2.589-0.783-3.961-2.038-5.608L78.763,360.627z"/>
	<path fill="#040000" d="M117.087,373.569c0,0.549-0.115,0.744-0.468,0.902c-0.391,0.156-1.293,0.235-2.238,0.235
		c-0.902,0-1.212-0.196-1.212-0.744c0-0.079,0-0.157,0-0.275c0.196-6.863,0.349-15.295,0.349-17.726
		c0-6.432-0.077-14.864-0.196-16.942c2.004,0.941,2.591,1.255,4.471,2.314h12.669c0.744-0.942,0.978-1.217,1.842-2.119
		c1.255,0.902,1.646,1.176,2.825,2.079c0.353,0.274,0.472,0.47,0.472,0.705c0,0.118-0.043,0.274-0.119,0.353
		c-0.038,0-0.391,0.236-1.059,0.667v19.296c0,0.156,0.038,4.588,0.081,8.471c-0.043,1.255-0.238,1.843-0.706,2.353
		c-0.668,0.706-1.651,1.059-3.297,1.255c-0.744,0.079-1.017,0.118-1.174,0.118c-0.353,0-0.396-0.039-0.434-0.588
		c-0.038-0.55-0.196-1.099-0.51-1.491c-0.664-0.823-1.489-1.216-4.233-1.882v-0.509c3.684,0.274,3.841,0.274,6.037,0.353
		c0.51-0.039,0.63-0.157,0.63-0.588v-27.649h-13.728V373.569z M126.501,351.019c0.744-0.864,0.978-1.138,1.685-2.04
		c1.021,0.902,1.336,1.216,2.276,2.078c0.119,0.197,0.234,0.353,0.234,0.432c0,0.196-0.196,0.353-0.43,0.353h-5.058v13.412h1.566
		v-9.059c0-0.549,0-0.667-0.115-2.589c3.374,0.471,3.765,0.55,3.765,1.02c0,0.274-0.157,0.353-1.217,0.627c0,1.412,0,2.51,0,3.177
		c0,1.334,0,2.117,0.077,8.628c0,0.47-0.077,0.666-0.391,0.784c-0.234,0.118-0.821,0.196-1.332,0.196
		c-0.587,0-0.744-0.117-0.787-0.667v-1.293h-5.683v2.078c0,0.628-0.238,0.746-1.255,0.785c-0.277,0-0.434,0-0.51,0
		c-0.081,0-0.119,0-0.119,0c-0.468,0-0.587-0.118-0.587-0.589c0.077-6.117,0.077-6.157,0.077-8.392c0-3.686,0-4.785-0.115-6.431
		c1.37,0.196,2.82,0.47,3.331,0.628c0.277,0.078,0.391,0.235,0.391,0.391c0,0.353-0.272,0.471-1.212,0.706v10h1.566v-13.412h-3.097
		c-0.587,0-1.021,0.039-1.88,0.235l-0.277-1.294c0.787,0.157,1.489,0.236,2.157,0.236h4.237c1.059-2.824,1.723-5.334,2.038-7.883
		c4.041,1.255,4.433,1.411,4.433,1.804c0,0.314-0.353,0.47-1.293,0.47c-1.961,2.863-2.552,3.687-4.161,5.609H126.501z
		 M118.737,343.097c3.059,1.961,4.352,3.294,4.352,4.471c0,1.176-1.217,2.745-2.08,2.745c-0.272,0-0.468-0.118-0.587-0.392
		c-0.157-0.235-0.157-0.274-0.391-1.725c-0.277-1.687-0.744-3.177-1.57-4.864L118.737,343.097z M142.816,342.587
		c0-0.746-0.038-1.491-0.119-3.255c1.178,0.118,2.119,0.235,2.706,0.274c2.199,0.196,2.863,0.432,2.863,0.863
		c0,0.392-0.43,0.667-1.412,0.864v18.079l0.119,11.451c-0.077,1.647-0.43,2.354-1.451,2.942c-0.864,0.509-2.667,0.902-3.999,0.902
		c-0.353,0-0.396-0.039-0.396-0.627c0-0.744-0.153-1.255-0.391-1.608c-0.744-0.941-1.765-1.451-4.352-2.078v-0.471
		c2.667,0.236,3.488,0.275,5.726,0.353c0.625-0.039,0.706-0.078,0.706-0.627V342.587z M141.403,342.744
		c0.277,0.156,0.391,0.314,0.391,0.509c0,0.353-0.272,0.55-1.255,0.824c0,11.569,0.038,17.844,0.081,20.746
		c-0.081,1.019-0.472,1.176-2.706,1.176c-1.021,0-1.217-0.157-1.217-0.902c0.115-3.451,0.115-4.667,0.115-8.197
		c0-8.275-0.038-13.021-0.115-14.785C140.578,342.469,140.931,342.548,141.403,342.744z"/>
	<path fill="#040000" d="M163.883,373.569c0,0.549-0.115,0.744-0.468,0.902c-0.391,0.156-1.293,0.235-2.238,0.235
		c-0.902,0-1.212-0.196-1.212-0.744c0-0.079,0-0.157,0-0.275c0.196-6.863,0.349-15.295,0.349-17.726
		c0-6.432-0.077-14.864-0.196-16.942c2.004,0.941,2.591,1.255,4.471,2.314h12.669c0.744-0.942,0.978-1.217,1.842-2.119
		c1.255,0.902,1.646,1.176,2.825,2.079c0.353,0.274,0.472,0.47,0.472,0.705c0,0.118-0.043,0.274-0.119,0.353
		c-0.038,0-0.391,0.236-1.059,0.667v19.296c0,0.156,0.038,4.588,0.081,8.471c-0.043,1.255-0.238,1.843-0.706,2.353
		c-0.668,0.706-1.651,1.059-3.297,1.255c-0.744,0.079-1.017,0.118-1.174,0.118c-0.353,0-0.396-0.039-0.434-0.588
		c-0.038-0.55-0.196-1.099-0.51-1.491c-0.664-0.823-1.489-1.216-4.233-1.882v-0.509c3.684,0.274,3.841,0.274,6.037,0.353
		c0.51-0.039,0.63-0.157,0.63-0.588v-27.649h-13.728V373.569z M173.297,351.019c0.744-0.864,0.978-1.138,1.685-2.04
		c1.021,0.902,1.336,1.216,2.276,2.078c0.119,0.197,0.234,0.353,0.234,0.432c0,0.196-0.196,0.353-0.43,0.353h-5.058v13.412h1.566
		v-9.059c0-0.549,0-0.667-0.115-2.589c3.374,0.471,3.765,0.55,3.765,1.02c0,0.274-0.157,0.353-1.217,0.627c0,1.412,0,2.51,0,3.177
		c0,1.334,0,2.117,0.077,8.628c0,0.47-0.077,0.666-0.391,0.784c-0.234,0.118-0.821,0.196-1.332,0.196
		c-0.587,0-0.744-0.117-0.787-0.667v-1.293h-5.684v2.078c0,0.628-0.238,0.746-1.255,0.785c-0.277,0-0.434,0-0.51,0
		c-0.081,0-0.119,0-0.119,0c-0.468,0-0.587-0.118-0.587-0.589c0.077-6.117,0.077-6.157,0.077-8.392c0-3.686,0-4.785-0.115-6.431
		c1.37,0.196,2.82,0.47,3.331,0.628c0.277,0.078,0.391,0.235,0.391,0.391c0,0.353-0.272,0.471-1.212,0.706v10h1.566v-13.412h-3.097
		c-0.587,0-1.021,0.039-1.88,0.235l-0.277-1.294c0.787,0.157,1.489,0.236,2.157,0.236h4.237c1.059-2.824,1.723-5.334,2.038-7.883
		c4.041,1.255,4.433,1.411,4.433,1.804c0,0.314-0.353,0.47-1.293,0.47c-1.961,2.863-2.552,3.687-4.161,5.609H173.297z
		 M165.533,343.097c3.059,1.961,4.352,3.294,4.352,4.471c0,1.176-1.217,2.745-2.08,2.745c-0.272,0-0.468-0.118-0.587-0.392
		c-0.157-0.235-0.157-0.274-0.391-1.725c-0.277-1.687-0.744-3.177-1.57-4.864L165.533,343.097z M189.612,342.587
		c0-0.746-0.038-1.491-0.119-3.255c1.178,0.118,2.119,0.235,2.706,0.274c2.199,0.196,2.863,0.432,2.863,0.863
		c0,0.392-0.43,0.667-1.412,0.864v18.079l0.119,11.451c-0.077,1.647-0.43,2.354-1.451,2.942c-0.864,0.509-2.667,0.902-3.999,0.902
		c-0.353,0-0.396-0.039-0.396-0.627c0-0.744-0.153-1.255-0.391-1.608c-0.744-0.941-1.765-1.451-4.352-2.078v-0.471
		c2.667,0.236,3.488,0.275,5.726,0.353c0.625-0.039,0.706-0.078,0.706-0.627V342.587z M188.199,342.744
		c0.277,0.156,0.391,0.314,0.391,0.509c0,0.353-0.272,0.55-1.255,0.824c0,11.569,0.038,17.844,0.081,20.746
		c-0.081,1.019-0.472,1.176-2.706,1.176c-1.021,0-1.217-0.157-1.217-0.902c0.115-3.451,0.115-4.667,0.115-8.197
		c0-8.275-0.038-13.021-0.115-14.785C187.374,342.469,187.727,342.548,188.199,342.744z"/>
	<path fill="#040000" d="M228.27,355.921v-3.568c0-1.216-0.038-2.196-0.196-4.236c1.727,0.157,2.195,0.235,3.374,0.392
		c1.098-1.529,2.314-3.609,3.646-6.118h-10.589c-1.489,0-2.272,0.039-3.374,0.236l-0.234-1.412c1.336,0.274,2.195,0.353,3.45,0.353
		h10.589l2.472-2.353c1.765,1.411,2.314,1.804,3.961,3.254c0.315,0.274,0.434,0.471,0.434,0.667c0,0.392-0.391,0.509-2.042,0.627
		c-3.722,2.745-5.33,3.883-7.058,4.941c0.978,0.157,1.293,0.353,1.293,0.706s-0.272,0.549-1.412,0.981v5.529h3.297
		c1.217-1.49,1.608-1.961,2.901-3.412c1.804,1.529,2.314,2.001,3.961,3.608c0.119,0.157,0.196,0.315,0.196,0.391
		c0,0.119-0.196,0.236-0.43,0.236h-9.925v4.667c0,2.119,0,2.472,0.081,5.373c0.038,1.687,0.038,1.765,0.077,3.491
		c-0.038,1.648-0.315,2.393-1.293,3.059c-0.902,0.668-2.901,1.217-4.275,1.217c-0.43,0-0.468-0.079-0.51-0.706
		c-0.196-2.195-1.098-2.863-5.216-3.844l0.119-0.549c4.037,0.274,4.118,0.274,6.117,0.274c0.038,0,0.077,0,0.119,0
		c0.391,0,0.468-0.117,0.468-0.666v-12.316h-8.547c-0.706,3.099-1.255,4.745-2.199,6.666c2.906,1.765,3.765,2.708,3.765,4.237
		c0,1.608-1.017,3.333-1.919,3.333c-0.51,0-0.787-0.274-1.412-1.608c-0.51-1.059-1.14-1.999-2.042-3.176
		c-1.212,1.842-2.157,2.901-3.569,4.235c-1.88,1.687-3.918,3.137-6.232,4.392l-0.277-0.353c3.493-3.254,5.845-6.549,7.764-10.863
		c-1.055-1.059-1.451-1.412-2.744-2.472l-0.668,2.431c-0.234,0.589-0.506,0.706-1.527,0.706c-0.864,0-1.885-0.117-2.238-0.236
		c-0.196-0.117-0.311-0.274-0.311-0.508c0-0.079,0.038-0.315,0.115-0.549c1.57-5.06,2.472-8.863,3.454-14.118h-0.902
		c-1.178,0-1.885,0.039-2.906,0.196l-0.196-1.334c1.298,0.236,2.119,0.314,3.101,0.314h1.055c0.825-4.627,1.102-6.706,1.217-9.138
		c1.217,0.157,2.157,0.275,2.786,0.353c2.233,0.274,2.901,0.51,2.901,0.981c0,0.392-0.51,0.706-1.646,0.941
		c-0.549,3.372-0.787,4.627-1.217,6.863h2.786c0.859-1.019,1.136-1.293,2.038-2.274c1.332,0.981,1.765,1.255,3.059,2.274
		c0.353,0.274,0.51,0.51,0.51,0.706c0,0.353-0.353,0.628-1.255,0.981c-0.472,3.177-0.668,4.314-1.098,6.196H228.27z
		 M213.721,348.862c-0.744,3.882-1.765,8.273-2.667,11.647c1.57,0.549,2.119,0.785,3.254,1.295c1.412-3.963,2.157-7.53,2.629-12.942
		H213.721z"/>
	<path fill="#040000" d="M267.949,343.626c0-1.882-0.043-3.137-0.238-4.707c5.53,0.432,6.432,0.628,6.432,1.217
		c0,0.391-0.549,0.744-1.685,1.019v12.707h7.725v-6.117c-0.081-4.392-0.081-4.392-0.196-5.766c5.645,0.472,6.237,0.589,6.237,1.178
		c0,0.391-0.396,0.625-1.493,0.94l-0.038,5.373c0,1.608,0,3.059,0.077,6.158c0,0.981-0.625,1.215-3.216,1.215
		c-1.136,0-1.37-0.157-1.37-0.902v-1.255h-7.725v16.551h9.214v-7.804c0-1.608-0.038-3.335-0.119-4.433
		c6.041,0.589,6.16,0.589,6.16,1.138c0,0.432-0.434,0.706-1.489,1.019c-0.043,1.412-0.043,2.589-0.043,3.295
		c0,1.999,0,2.431,0.157,9.059c0,0.47-0.077,0.668-0.272,0.823c-0.353,0.274-1.531,0.472-3.101,0.472
		c-1.098,0-1.293-0.119-1.293-0.904v-1.842h-22.47v1.412c0,0.43-0.081,0.587-0.238,0.744c-0.349,0.315-1.37,0.47-2.782,0.47
		c-1.293,0-1.685-0.234-1.685-1.019v-0.079c0.153-3.529,0.196-4.903,0.196-7.804c0-3.569-0.043-4.903-0.196-6.785
		c4.862,0.472,5.173,0.51,5.645,0.668c0.353,0.155,0.51,0.313,0.51,0.549c0,0.353-0.391,0.628-1.451,0.94v10.08h8.746v-16.551
		h-7.219v1.138c0,0.353-0.077,0.549-0.234,0.666c-0.353,0.274-1.217,0.432-2.548,0.432c-1.021,0-1.531-0.117-1.727-0.47
		c0-0.04-0.038-0.236-0.077-0.549c0.115-4.237,0.115-4.903,0.115-7.021c0-3.607-0.038-5.254-0.234-6.941
		c5.569,0.432,6.237,0.549,6.237,1.138c0,0.391-0.434,0.666-1.531,1.019v9.765h7.219V343.626z"/>
	<path fill="#040000" d="M308.274,352.666h0.353c0.902-1.176,1.174-1.529,2.157-2.706c1.374,1.255,1.765,1.646,3.02,2.901
		c0.115,0.157,0.196,0.274,0.196,0.391c0,0.157-0.196,0.236-0.472,0.236h-5.254v9.176c1.804-0.549,2.706-0.861,5.254-1.804
		l0.196,0.393c-3.097,2.548-6.824,5.058-11.137,7.53c-0.115,1.332-0.315,1.804-0.625,1.804c-0.434,0-0.864-0.942-2.667-5.688
		c1.923-0.274,3.097-0.549,4.862-1.019V353.49h-2.08c-0.902,0-1.255,0.038-2.114,0.196l-0.238-1.334
		c0.983,0.236,1.57,0.315,2.433,0.315h1.999v-9.806h-2.276c-0.783,0-1.293,0.04-2.195,0.198l-0.234-1.334
		c0.978,0.234,1.646,0.313,2.429,0.313h6.079c1.021-1.215,1.336-1.608,2.395-2.784c1.566,1.255,2.038,1.687,3.565,3.02
		c0.081,0.157,0.157,0.274,0.157,0.353c0,0.117-0.157,0.234-0.391,0.234h-5.411V352.666z M305.254,374.392
		c4.705-1.489,7.611-3.371,9.882-6.313c1.412-1.804,2.238-3.727,2.591-5.883c-0.787,0.079-1.178,0.079-1.923,0.079
		c-1.293,0-1.608-0.157-1.608-0.744c0,0,0-0.079,0-0.119c0.157-3.882,0.196-5.803,0.196-14.196c0-3.765-0.038-5.256-0.196-8.353
		c2.157,0.902,2.786,1.215,4.786,2.314h9.41c0.983-1.021,1.255-1.334,2.238-2.314c1.527,1.019,1.961,1.334,3.293,2.391
		c0.391,0.315,0.549,0.51,0.549,0.706c0,0.315-0.315,0.589-1.489,1.295v3.333c0,5.294,0.038,8.432,0.196,14.394
		c0,0.391-0.081,0.549-0.315,0.666c-0.43,0.196-1.765,0.353-2.982,0.353c-0.821,0-1.017-0.079-1.174-0.47v8.274
		c0,0.706,0.077,0.744,1.608,0.744c1.174,0,1.57-0.155,1.923-0.861c0.234-0.432,0.549-1.334,0.821-2.236
		c0.081-0.315,0.277-0.981,0.587-2.04c0.119-0.432,0.434-1.491,0.668-2.274h0.391l-0.077,5.686c0,0.079,0,0.157,0,0.196
		c0,0.668,0.077,0.747,0.94,1.021c0.51,0.196,0.94,0.861,0.94,1.529c0,0.706-0.391,1.372-1.055,1.763
		c-1.021,0.589-2.238,0.785-5.139,0.785c-3.493,0-4.395-0.079-5.02-0.51c-0.706-0.43-0.94-1.136-0.94-2.51v-10.469h-5.649v0.627
		c1.961,0.353,3.254,0.628,3.846,0.783c0.549,0.157,0.821,0.353,0.821,0.589c0,0.274-0.234,0.391-1.217,0.706
		c-1.174,3.999-2.82,6.313-5.841,8.157c-2.944,1.804-5.922,2.744-10.865,3.371L305.254,374.392z M328.669,341.999h-9.963v5.254
		h9.963V341.999z M328.669,348.078h-9.963v5.294h9.963V348.078z M328.669,354.196h-9.963v5.607h9.963V354.196z"/>
	<path fill="#040000" d="M372.759,341.606c1.255-1.138,1.646-1.491,2.82-2.548c2.276,1.646,2.944,2.157,4.905,3.841
		c0.391,0.353,0.549,0.551,0.549,0.785c0,0.394-0.549,0.628-1.451,0.628c-0.277,0-0.668,0-1.178-0.038
		c-3.412,2.195-6.824,4.118-10.589,5.96c0.706,0.157,0.978,0.315,0.978,0.627c0,0.432-0.468,0.706-1.723,1.059v9.765l0.077,8.432
		c-0.077,2.472-0.864,3.412-3.374,4.08c-0.859,0.234-2.429,0.47-3.016,0.47c-0.51,0-0.591-0.079-0.668-0.823
		c-0.157-1.021-0.472-1.608-1.217-2.119c-1.136-0.785-2.782-1.372-6.194-2.157v-0.432c3.803,0.236,5.135,0.274,8.98,0.353
		c0.506-0.038,0.706-0.196,0.706-0.666v-15.961c0-1.021-0.081-1.806-0.277-3.49c2.195,0.274,2.863,0.353,4.314,0.587
		c2.825-2.942,4.705-5.216,6.313-7.53h-20.313c-1.531,0-2.548,0.079-3.765,0.274l-0.277-1.489c1.412,0.274,2.629,0.391,4.118,0.391
		H372.759z"/>
	<path fill="#040000" d="M403.884,363.195c0-0.47,0-0.823,0-1.059c0-2.627,0.625-4.509,2.233-6.628
		c1.451-1.921,1.727-2.391,2.157-3.45c0.472-1.217,0.63-2.197,0.63-3.569c0-3.803-1.255-5.881-3.531-5.881
		c-1.765,0-2.863,1.019-3.335,3.059c-0.196,0.823-0.272,1.685-0.311,3.529c0,1.372-0.549,1.882-2.042,1.882
		c-1.646,0-2.429-0.706-2.429-2.119c0-2.312,1.174-4.548,3.097-5.922c1.451-0.981,3.14-1.451,5.216-1.451
		c5.058,0,8.117,2.706,8.117,7.138c0,1.921-0.549,3.529-1.608,4.784c-0.587,0.668-1.332,1.372-2.51,2.197
		c-2.114,1.568-2.587,2.038-3.216,3.293c-0.625,1.295-0.859,2.197-1.017,4.197H403.884z M401.374,368.921
		c0-1.804,1.451-3.254,3.254-3.254c1.765,0,3.216,1.451,3.216,3.254c0,1.765-1.451,3.216-3.216,3.216
		C402.825,372.138,401.374,370.687,401.374,368.921z"/>
</g>
</svg>
